<?xml version="1.0" encoding="UTF-8" standalone="no"?>
<!-- Created with Inkscape (http://www.inkscape.org/) -->

<svg
   xmlns:dc="http://purl.org/dc/elements/1.1/"
   xmlns:cc="http://creativecommons.org/ns#"
   xmlns:rdf="http://www.w3.org/1999/02/22-rdf-syntax-ns#"
   xmlns:svg="http://www.w3.org/2000/svg"
   xmlns="http://www.w3.org/2000/svg"
   xmlns:sodipodi="http://sodipodi.sourceforge.net/DTD/sodipodi-0.dtd"
   xmlns:inkscape="http://www.inkscape.org/namespaces/inkscape"
   width="147.4725mm"
   height="147.46742mm"
   viewBox="0 0 147.4725 147.46742"
   version="1.1"
   id="svg8"
   sodipodi:docname="mb_Stator.svg"
   inkscape:version="0.92.4 (5da689c313, 2019-01-14)">
  <defs
     id="defs2" />
  <sodipodi:namedview
     id="base"
     pagecolor="#ffffff"
     bordercolor="#666666"
     borderopacity="1.0"
     inkscape:pageopacity="0.0"
     inkscape:pageshadow="2"
     inkscape:zoom="1.979899"
     inkscape:cx="269.28555"
     inkscape:cy="242.32101"
     inkscape:document-units="mm"
     inkscape:current-layer="g970"
     showgrid="false"
     inkscape:window-width="1920"
     inkscape:window-height="1137"
     inkscape:window-x="1912"
     inkscape:window-y="-8"
     inkscape:window-maximized="1" />
  <metadata
     id="metadata5">
    <rdf:RDF>
      <cc:Work
         rdf:about="">
        <dc:format>image/svg+xml</dc:format>
        <dc:type
           rdf:resource="http://purl.org/dc/dcmitype/StillImage" />
        <dc:title></dc:title>
      </cc:Work>
    </rdf:RDF>
  </metadata>
  <g
     inkscape:label="Ebene 1"
     inkscape:groupmode="layer"
     id="layer1"
     transform="translate(-2.7309255,-3.4866315)">
    <g
       id="g937">
      <g
         id="g970">
        <path
           d="m 74.51618,98.026759 h 28.28702 l -3e-5,-0.04631 -7e-5,-0.04631 -1e-4,-0.04631 -1.6e-4,-0.04631 -1.8e-4,-0.04631 -2e-4,-0.04631 -3.8e-4,-0.04631 -3.7e-4,-0.04631 -3.8e-4,-0.04631 -3.9e-4,-0.04631 -5.4e-4,-0.04631 -5.4e-4,-0.04631 -5.4e-4,-0.04631 -5.4e-4,-0.04631 -5.3e-4,-0.04631 -5.4e-4,-0.04631 -5.4e-4,-0.04631 -5.4e-4,-0.04631 -5.4e-4,-0.04631 -7.7e-4,-0.04631 -7.7e-4,-0.04631 -7.7e-4,-0.04631 -7.7e-4,-0.04631 -7.7e-4,-0.04631 -7.7e-4,-0.04631 -7.7e-4,-0.04631 -7.7e-4,-0.04631 -7.7e-4,-0.04631 -7.7e-4,-0.04631 -7.7e-4,-0.04631 -7.7e-4,-0.04631 -0.001,-0.04631 -10e-4,-0.04631 -0.001,-0.04631 -0.001,-0.04631 -10e-4,-0.04631 -0.001,-0.04631 -0.001,-0.04631 -10e-4,-0.04631 -0.001,-0.04631 -0.001,-0.04631 -0.002,-0.04631 -0.002,-0.04631 -0.002,-0.04631 -0.002,-0.04631 -0.002,-0.04631 -0.002,-0.04631 -0.002,-0.04631 -0.002,-0.04631 -0.002,-0.04631 -0.002,-0.04631 -0.002,-0.04631 -0.002,-0.04631 -0.003,-0.0462 -0.003,-0.0462 -0.002,-0.04631 -0.003,-0.0462 -0.003,-0.0462 -0.003,-0.0462 -0.003,-0.0462 -0.003,-0.0462 -0.003,-0.0462 -0.003,-0.0462 -0.003,-0.0462 -0.003,-0.0462 -0.003,-0.0462 -0.003,-0.0462 -0.003,-0.0462 -0.003,-0.0462 -0.003,-0.0462 -0.003,-0.0462 -0.003,-0.0462 -0.003,-0.04609 -0.003,-0.04609 -0.003,-0.04609 -0.003,-0.04609 -0.003,-0.04609 -0.003,-0.04609 -0.004,-0.04609 -0.004,-0.04609 -0.0148,-0.184536 -0.0156,-0.184481 -0.0163,-0.184404 -0.017,-0.18436 -0.0178,-0.184272 -0.0185,-0.184217 -0.0192,-0.18414 -0.02,-0.184063 -0.0207,-0.183975 -0.0215,-0.183887 -0.0222,-0.18381 -0.0229,-0.183733 -0.0235,-0.183623 -0.0243,-0.183546 -0.0251,-0.183436 -0.0257,-0.183348 -0.0265,-0.183238 -0.0272,-0.183128 -0.0278,-0.183029 -0.0286,-0.182919 -0.0294,-0.182809 -0.0301,-0.182677 -0.0308,-0.182556 -0.0315,-0.182457 -0.0322,-0.182314 -0.033,-0.182193 -0.0337,-0.182061 -0.0343,-0.181929 -0.035,-0.181786 -0.0357,-0.181643 -0.0365,-0.181511 -0.0372,-0.181368 -0.0378,-0.181225 -0.0386,-0.18106 -0.0393,-0.180917 -0.04,-0.180752 -0.0407,-0.180609 -0.0415,-0.180433 -0.0421,-0.180268 -0.0428,-0.180114 -0.0436,-0.179927 -0.0443,-0.179773 -0.045,-0.179586 -0.0456,-0.17941 -0.0464,-0.179234 -0.0471,-0.179047 -0.0478,-0.17886 -0.0485,-0.178673 -0.0492,-0.178486 -0.0499,-0.178277 -0.0506,-0.17809 -0.0513,-0.177892 -0.052,-0.177683 -0.0527,-0.177485 -0.0535,-0.177265 -0.054,-0.177056 -0.0548,-0.176858 -0.0554,-0.176627 -0.0562,-0.176396 -0.0569,-0.176198 -0.0575,-0.175967 -0.0582,-0.175736 -0.059,-0.175505 -0.0596,-0.175263 -0.0603,-0.175054 -0.0609,-0.174801 -0.0617,-0.174548 -0.0624,-0.174317 -0.06303,-0.174064 -0.0638,-0.173833 -0.06446,-0.173558 -0.06512,-0.173316 -0.06578,-0.173052 -0.06644,-0.17281 -0.0671,-0.172535 -0.06787,-0.172271 -0.06853,-0.171996 -0.06919,-0.171732 -0.06985,-0.171457 -0.07051,-0.171193 -26.1338,10.824968 0.0352,0.08558 0.03476,0.0858 0.03432,0.08591 0.03399,0.08613 0.03355,0.08635 0.03311,0.08646 0.03267,0.08657 0.03223,0.08679 0.03179,0.0869 0.03135,0.08712 0.03091,0.08723 0.03058,0.08734 0.03014,0.08756 0.0297,0.08767 0.02926,0.08778 0.02882,0.088 0.02838,0.08811 0.02794,0.08822 0.02761,0.08844 0.02706,0.08855 0.02662,0.08866 0.02618,0.08877 0.02574,0.08888 0.0253,0.08899 0.02486,0.0891 0.02453,0.08932 0.02398,0.08943 0.02365,0.08954 0.0231,0.08965 0.02266,0.08976 0.02222,0.08987 0.02189,0.08998 0.02145,0.09009 0.0209,0.0902 0.02046,0.09031 0.02002,0.09031 0.01969,0.09042 0.01914,0.09053 0.01881,0.09064 0.01826,0.09075 0.01782,0.09086 0.01738,0.09097 0.01694,0.09097 0.0165,0.09108 0.01606,0.09119 0.01562,0.09119 0.01518,0.0913 0.01474,0.09141 0.0143,0.09141 0.01375,0.09152 0.01342,0.09163 0.01287,0.09163 0.01243,0.09174 0.01199,0.09174 0.01155,0.09185 0.01111,0.09185 0.011,0.09196 0.0099,0.09196 0.0099,0.09207 0.0088,0.09207 0.0088,0.09218 0.0088,0.09218 0.0077,0.09218 0.0077,0.09229 0.0066,0.09229 0.0066,0.09229 0.0066,0.0924 0.0055,0.0924 0.0055,0.0924 0.0044,0.0924 0.0044,0.09251 0.0044,0.09251 0.0033,0.09251 0.0033,0.09251 0.0033,0.09251 0.0022,0.09251 0.0011,0.09251 7.7e-4,0.09251 5.39e-4,0.09262 2.09e-4,0.09262 m -5.523386,-13.334629 0.06534,0.06556 0.06501,0.06589 0.06468,0.06633 0.06424,0.06655 0.06402,0.06688 0.06369,0.06721 0.06336,0.06754 0.06303,0.06787 0.0627,0.06809 0.06237,0.06842 0.06193,0.06875 0.06171,0.06908 0.06127,0.06941 0.06094,0.06963 0.06072,0.06996 0.06028,0.07018 0.05995,0.07051 0.05962,0.07084 0.05918,0.07117 0.05896,0.07139 0.05852,0.07172 0.05819,0.07194 0.05786,0.07227 0.05753,0.07249 0.05709,0.07282 0.05676,0.07315 0.05643,0.07337 0.0561,0.0737 0.05566,0.07392 0.05533,0.07425 0.055,0.07447 0.05456,0.0748 0.05423,0.07502 0.05379,0.07535 0.05346,0.07557 0.05313,0.0759 0.0528,0.07612 0.05236,0.07634 0.05203,0.07656 0.0517,0.07689 0.05126,0.07711 0.05082,0.07733 0.05049,0.07755 0.05005,0.07788 0.04972,0.0781 0.04939,0.07832 0.04895,0.07854 0.04862,0.07876 0.04818,0.07909 0.04785,0.07931 0.0473,0.07953 0.04697,0.07975 0.04653,0.07997 0.04631,0.08019 0.04576,0.08041 0.04543,0.08063 0.04499,0.08085 0.04466,0.08107 0.04433,0.08129 0.04378,0.08151 0.04345,0.08173 0.04301,0.08195 0.04268,0.08217 0.04224,0.08239 0.0418,0.08261 0.04147,0.08283 0.04103,0.08294 0.04059,0.08316 0.04015,0.08338 0.03982,0.0836 0.03938,0.08371 0.03894,0.08393 0.0385,0.08415 0.03817,0.08437 0.03773,0.08448 0.03729,0.0847 0.03696,0.08492 0.03652,0.08503 0.03608,0.08525 0.03564,0.08547 M 99.21626,79.982722 99.14509,79.811826 99.07326,79.641205 99.00077,79.470859 98.92751,79.300788 98.8537,79.131025 98.77912,78.961559 98.70388,78.792379 98.62798,78.623485 98.55142,78.454921 98.4742,78.286621 98.39632,78.11864 98.31778,77.950978 98.23858,77.783602 98.15872,77.616556 98.07831,77.449829 97.99713,77.28341 97.9154,77.117299 97.83301,76.95154 97.74996,76.786067 97.66625,76.620957 97.58188,76.456166 97.49685,76.291705 97.41116,76.127574 97.32481,75.963784 97.2378,75.800335 97.15024,75.637227 97.06202,75.47446 96.97314,75.312067 96.8836,75.149993 l -0.09009,-0.1617 -0.09075,-0.16137 -0.09141,-0.160985 -0.09207,-0.160633 -0.09262,-0.160281 -0.09328,-0.159907 -0.09394,-0.159544 -0.0946,-0.15917 -0.09515,-0.158796 -0.09581,-0.158422 -0.09636,-0.158048 -0.09702,-0.157663 -0.09768,-0.157289 -0.09823,-0.156904 -0.09889,-0.156508 -0.09955,-0.156112 -0.1001,-0.155738 -0.10076,-0.155331 -0.10131,-0.154935 -0.10197,-0.154539 -0.10252,-0.154143 -0.10318,-0.153736 -0.10373,-0.15334 -0.10439,-0.152905 -0.10494,-0.152506 -0.1056,-0.15209 -0.10615,-0.15169 -0.1067,-0.151251 -0.10736,-0.150843 -0.10791,-0.15042 -0.10857,-0.149988 -0.10912,-0.149573 -0.10967,-0.149149 -0.110297,-0.148687 -0.11088,-0.148279 -0.111441,-0.147832 -0.112035,-0.147378 -0.112607,-0.14697 -0.11319,-0.1465 -0.113762,-0.146077 -0.114334,-0.145614 -0.114895,-0.145176 -0.115478,-0.144714 -0.116028,-0.144244 -0.1166,-0.143805 -0.117172,-0.143351 -0.117744,-0.142881 -0.118283,-0.142412 -0.118844,-0.141957 -0.119416,-0.141488 -0.119966,-0.141017 -0.03014,-0.03519 -0.03014,-0.03511 -0.03014,-0.03511 -0.03014,-0.03511 -0.03014,-0.03511 -0.03025,-0.03503 -0.03025,-0.03504 -0.03036,-0.03496 -0.03036,-0.03496 -0.03036,-0.03496 -0.03036,-0.03488 -0.03047,-0.0348 -0.03047,-0.0348 -0.03047,-0.03473 -0.03058,-0.0348 -0.03069,-0.03473 -0.03069,-0.03473 -0.03069,-0.03473 -0.03069,-0.03465 -0.03069,-0.03457 -0.0308,-0.03457 -0.0308,-0.03457 -0.0308,-0.03457 -0.03091,-0.0345 -0.03091,-0.03442 -0.03091,-0.03442 -0.03102,-0.03442 -0.03091,-0.03442 -0.03102,-0.03434 -0.03102,-0.03434 -0.03113,-0.03427 -0.03113,-0.03419 -0.03124,-0.03427 -0.03124,-0.03426 -0.03124,-0.03411 -0.03124,-0.03411 -0.03135,-0.03403 -0.03135,-0.03403 -0.03135,-0.03403 -0.03135,-0.03403 -0.03146,-0.03396 -0.03146,-0.03396 -0.03146,-0.03388 -0.03146,-0.03388 -0.03157,-0.03388 -0.03157,-0.03388 -0.03168,-0.0338 -0.03168,-0.03373 -0.03168,-0.03373 -0.03168,-0.03373 -0.03168,-0.03365 -0.03179,-0.03365 -0.03179,-0.03357 -0.0319,-0.03357 -0.0319,-0.0335 -0.0319,-0.0335 -0.0319,-0.03349 -0.03201,-0.03342 -0.03201,-0.03342 -0.03201,-0.03334 -0.03212,-0.03334 -0.03212,-0.03334 -0.03223,-0.03334 -0.03223,-0.03326 -0.03223,-0.03319 -0.03223,-0.03319 -0.03223,-0.03319 -0.03234,-0.03311 -0.03234,-0.03311 -0.03245,-0.03303 -0.03245,-0.03303 -0.03245,-0.03296 -0.03245,-0.03296 -0.03245,-0.03296 -0.03256,-0.03296 -0.03256,-0.03288 -0.03256,-0.0328 -0.03267,-0.0328 -0.03267,-0.0328 -0.03278,-0.0328 -20.001927,20.001939 m 20.001927,-20.001939 -0.03267,-0.03272 -0.03278,-0.03265 -0.03278,-0.03265 -0.03278,-0.03257 -0.03289,-0.03257 -0.033,-0.03257 -0.033,-0.03249 -0.033,-0.03249 -0.033,-0.03242 -0.033,-0.03242 -0.033,-0.03242 -0.03311,-0.03234 -0.03311,-0.03234 -0.03322,-0.03226 -0.03322,-0.03226 -0.03322,-0.03226 -0.03322,-0.03219 -0.03322,-0.03219 -0.03333,-0.03211 -0.03333,-0.03211 -0.03333,-0.03211 -0.03344,-0.03203 -0.03344,-0.03203 -0.03355,-0.03196 -0.03355,-0.03188 -0.03355,-0.03188 -0.03355,-0.03188 -0.03355,-0.03188 -0.03366,-0.0318 -0.03377,-0.03172 -0.03366,-0.03172 -0.03377,-0.03172 -0.03377,-0.03172 -0.03377,-0.03165 -0.03377,-0.03157 -0.03388,-0.03157 -0.03388,-0.03157 -0.03388,-0.03149 -0.03399,-0.03149 -0.03399,-0.03142 -0.03399,-0.03142 -0.03399,-0.03134 -0.03399,-0.03134 -0.0341,-0.03134 -0.0341,-0.03126 -0.03421,-0.03126 -0.03421,-0.03119 -0.03421,-0.03119 -0.03432,-0.03119 -0.03421,-0.03111 -0.03432,-0.03103 -0.03432,-0.03103 -0.03443,-0.03103 -0.03443,-0.03095 -0.03443,-0.03095 -0.03443,-0.03088 -0.03454,-0.03088 -0.03454,-0.0308 -0.03454,-0.0308 -0.03454,-0.0308 -0.03454,-0.03072 -0.03465,-0.03065 -0.03476,-0.03065 -0.03476,-0.03065 -0.03476,-0.03065 -0.03476,-0.03057 -0.03476,-0.03049 -0.03476,-0.03049 -0.03487,-0.03042 -0.03487,-0.03041 -0.03498,-0.03041 -0.03498,-0.03034 -0.03498,-0.03026 -0.03498,-0.03026 -0.03509,-0.03026 -0.03498,-0.03018 -0.03509,-0.03018 -0.03509,-0.03011 -0.03509,-0.03011 -0.0352,-0.03011 -0.141009,-0.119966 -0.141493,-0.11942 -0.141966,-0.118849 -0.142406,-0.118288 -0.14289,-0.117725 -0.14333,-0.117171 -0.143803,-0.116609 -0.144276,-0.116039 -0.144705,-0.115477 -0.145178,-0.114899 -0.145618,-0.114337 -0.146058,-0.11376 -0.146509,-0.113175 -0.14696,-0.112612 -0.147389,-0.112012 -0.14784,-0.111465 -0.148258,-0.110873 -0.148709,-0.110287 -0.149127,-0.109714 -0.149578,-0.109098 -0.149985,-0.108526 -0.150425,-0.107943 -0.150843,-0.107338 -0.151261,-0.106755 -0.151668,-0.10615 -0.152097,-0.105567 -0.152504,-0.104973 -0.152922,-0.104346 -0.153329,-0.103785 -0.153725,-0.103158 -0.154154,-0.102553 -0.154539,-0.101959 -0.154935,-0.101321 -0.155342,-0.100727 -0.155727,-0.100111 -0.156123,-0.09952 -0.156519,-0.0989 -0.156882,-0.09827 -0.157278,-0.09766 -0.157685,-0.09704 -0.158026,-0.09644 -0.158444,-0.0958 -0.158785,-0.09517 -0.159181,-0.09457 -0.159533,-0.09393 -0.159907,-0.09331 -0.160281,-0.09267 -0.160644,-0.09205 -0.160974,-0.0914 -0.161348,-0.09078 -0.161722,-0.09013 -0.162063,-0.08951 -0.162415,-0.08888 -0.162756,-0.08823 -0.163108,-0.08758 -0.16346,-0.08695 -0.163779,-0.08631 -0.164131,-0.08566 -0.164461,-0.08503 -0.164791,-0.08438 -0.165132,-0.08372 -0.16544,-0.08309 -0.165781,-0.08241 -0.1661,-0.08176 -0.166408,-0.08113 -0.166738,-0.08048 -0.167046,-0.07982 -0.167376,-0.07916 -0.167673,-0.07851 -0.167981,-0.07784 -0.168278,-0.07718 -0.168586,-0.07654 -0.168883,-0.07585 -0.16918,-0.07523 -0.169477,-0.07454 -0.169774,-0.07384 -0.170049,-0.07323 -0.170346,-0.07253 -0.170621,-0.07184 -0.170907,-0.07115 -10.824959,26.133782 0.08543,0.03564 0.08525,0.03608 0.0851,0.03652 0.08489,0.03685 0.08473,0.03729 0.08453,0.03773 0.08435,0.03817 0.08415,0.0385 0.08397,0.03894 0.08376,0.03938 0.08359,0.03982 0.0834,0.04015 0.08319,0.04059 0.08297,0.04103 0.0828,0.04147 0.08258,0.0418 0.08238,0.04224 0.08217,0.04268 0.08196,0.04301 0.08176,0.04345 0.08153,0.04378 0.08131,0.04433 0.08109,0.04466 0.08088,0.04499 0.08064,0.04543 0.08043,0.04576 0.08022,0.04631 0.07997,0.04664 0.07974,0.04697 0.07951,0.0473 0.0793,0.04785 0.07903,0.04818 0.07882,0.04862 0.07855,0.04895 0.07832,0.04939 0.0781,0.04972 0.07783,0.05016 0.0776,0.05049 0.07734,0.05093 0.0771,0.05126 0.07685,0.0517 0.07662,0.05192 0.07638,0.05236 0.07608,0.0528 0.07577,0.05313 0.07554,0.05346 0.07531,0.05379 0.075,0.05423 0.07477,0.05456 0.07446,0.055 0.07423,0.05533 0.07392,0.05566 0.07369,0.0561 0.07338,0.05643 0.07315,0.05676 0.07284,0.05709 0.07253,0.05753 0.0723,0.05786 0.072,0.05819 0.07169,0.05852 0.07138,0.05896 0.07115,0.05929 0.07084,0.05962 0.07053,0.05995 0.07022,0.06028 0.06992,0.06061 0.06969,0.06094 0.06938,0.06127 0.06907,0.06171 0.06876,0.06193 0.06842,0.06226 0.06809,0.0627 0.06787,0.06303 0.06754,0.06325 0.06721,0.06369 0.06688,0.06402 0.06655,0.06435 0.06633,0.06457 0.06589,0.06501 0.06556,0.06534 m -13.334616,-5.523364 0.09257,1.87e-4 0.09257,5.39e-4 0.09256,7.7e-4 0.09254,0.0011 0.09255,0.0022 0.09253,0.0033 0.09252,0.0033 0.09251,0.0033 0.09249,0.0033 0.09247,0.0044 0.09244,0.0044 0.09243,0.0055 0.09239,0.0055 0.09237,0.0066 0.09233,0.0066 0.09231,0.0066 0.09226,0.0077 0.09224,0.0077 0.09219,0.0088 0.09216,0.0088 0.09209,0.0088 0.09206,0.0099 0.092,0.0099 0.09197,0.011 0.09188,0.01111 0.09185,0.01155 0.09178,0.01199 0.09173,0.01243 0.09167,0.01298 0.09159,0.01342 0.09154,0.01375 0.09146,0.0143 0.09139,0.01474 0.09132,0.01518 0.09125,0.01551 0.09117,0.01606 0.09109,0.0165 0.091,0.01694 0.09093,0.01727 0.09084,0.01782 0.09074,0.01826 0.09066,0.0187 0.09056,0.01914 0.09046,0.01958 0.09038,0.02002 0.09027,0.02046 0.09016,0.0209 0.09008,0.02145 0.08995,0.02189 0.08987,0.02222 0.08974,0.02277 0.08962,0.0231 0.08952,0.02365 0.0894,0.02398 0.08926,0.02453 0.08917,0.02486 0.08903,0.0253 0.0889,0.02574 0.08878,0.02618 0.08865,0.02662 0.08852,0.02706 0.08839,0.02761 0.08825,0.02794 0.0881,0.02838 0.08797,0.02893 0.08783,0.02926 0.08767,0.0297 0.08754,0.03014 0.08738,0.03058 0.08723,0.03091 0.08708,0.03135 0.08692,0.0319 0.08677,0.03223 0.08661,0.03267 0.08645,0.03311 0.08628,0.03355 0.08612,0.03399 0.08595,0.03443 0.08578,0.03476 0.08561,0.0352 m 10.824966,-26.133776 -0.171182,-0.07053 -0.171468,-0.06984 -0.171732,-0.06915 -0.171996,-0.06853 -0.172271,-0.06784 -0.172535,-0.06714 -0.172799,-0.06645 -0.173052,-0.06576 -0.173316,-0.06506 -0.173569,-0.06445 -0.173822,-0.06376 -0.174064,-0.06306 -0.174328,-0.06237 -0.174559,-0.06168 -0.17479,-0.06098 -0.175032,-0.06029 -0.175285,-0.0596 -0.175494,-0.0589 -0.175736,-0.05821 -0.175967,-0.05752 -0.176198,-0.0569 -0.176396,-0.05621 -0.176649,-0.05552 -0.176825,-0.05475 -0.177067,-0.05413 -0.177276,-0.05344 -0.177474,-0.05267 -0.177694,-0.05197 -0.177881,-0.05128 -0.178079,-0.05059 -0.178288,-0.0499 -0.178485,-0.0492 -0.178686,-0.04851 -0.178856,-0.04782 -0.179048,-0.04712 -0.179225,-0.04635 -0.179418,-0.04566 -0.179579,-0.04497 -0.179764,-0.04427 -0.179942,-0.04358 -0.18011,-0.04289 -0.180273,-0.0422 -0.180434,-0.04143 -0.180603,-0.04073 -0.180758,-0.04004 -0.180911,-0.03935 -0.181066,-0.03865 -0.181212,-0.03788 -0.181381,-0.03719 -0.181512,-0.03642 -0.181643,-0.0358 -0.181781,-0.03504 -0.181936,-0.03434 -0.182059,-0.03357 -0.182182,-0.03288 -0.182328,-0.03219 -0.182444,-0.03149 -0.182567,-0.03072 -0.182675,-0.03003 -0.182813,-0.02934 -0.182914,-0.02857 -0.183021,-0.02787 -0.183129,-0.02718 -0.183252,-0.02649 -0.183337,-0.02572 -0.183437,-0.02502 -0.183538,-0.02425 -0.183637,-0.02356 -0.183722,-0.02287 -0.183807,-0.0221 -0.183899,-0.02141 -0.183976,-0.02071 -0.184053,-0.01994 -0.184138,-0.01925 -0.184215,-0.01848 -0.184291,-0.01779 -0.184346,-0.01702 -0.184415,-0.01632 -0.184477,-0.01563 -0.184546,-0.01486 -0.04612,-0.0038 -0.04612,-0.0038 -0.04612,-0.0038 -0.04612,-0.0038 -0.0462,-0.0031 -0.04612,-0.0031 -0.04612,-0.0031 -0.0462,-0.0031 -0.0462,-0.0031 -0.04612,-0.0031 -0.0462,-0.0031 -0.0462,-0.0031 -0.0462,-0.0031 -0.0462,-0.0031 -0.0462,-0.0031 -0.0462,-0.0031 -0.0462,-0.0031 -0.0462,-0.0031 -0.0462,-0.0031 -0.0462,-0.0023 -0.0462,-0.0031 -0.0462,-0.0023 -0.04628,-0.0023 -0.0462,-0.0023 -0.0462,-0.0023 -0.0462,-0.0023 -0.0462,-0.0023 -0.04628,-0.0023 -0.04628,-0.0023 -0.04628,-0.0023 -0.04628,-0.0023 -0.04628,-0.0023 -0.04628,-0.0023 -0.04628,-0.0023 -0.04628,-0.0023 -0.04628,-0.0023 -0.04628,-0.0023 -0.04628,-0.0023 -0.04628,-0.0015 -0.04628,-0.0015 -0.04628,-0.0015 -0.04628,-0.0015 -0.04628,-0.0015 -0.04628,-0.0015 -0.04628,-0.0015 -0.04628,-0.0015 -0.04628,-0.0015 -0.04628,-0.0015 -0.04628,-0.0015 -0.04628,-0.0015 -0.04628,-0.0015 -0.04628,-0.0015 -0.04628,-0.0015 -0.04628,-7.7e-4 -0.04628,-7.7e-4 -0.04628,-7.7e-4 -0.04628,-7.7e-4 -0.04628,-7.7e-4 -0.04628,-7.7e-4 -0.04628,-7.7e-4 -0.04628,-7.7e-4 -0.04628,-7.55e-4 -0.04628,-7.54e-4 -0.04628,-7.55e-4 -0.04628,-7.55e-4 -0.04628,-5.92e-4 -0.04628,-5.93e-4 -0.04628,-5.93e-4 -0.04628,-5.93e-4 -0.04628,-5.93e-4 -0.04628,-3.85e-4 -0.04628,-3.77e-4 -0.04628,-3.78e-4 -0.04628,-3.85e-4 -0.04628,-1.92e-4 -0.04628,-1.85e-4 -0.04628,-1.39e-4 -0.04628,-1.3e-4 -0.04628,-5.4e-5 -0.04628,-2.3e-5 v 28.287293 m 43.556311,0.816387 4.355635,-1.804165 0.0776,0.188298 0.0769,0.188617 0.0761,0.188881 0.0754,0.189233 0.0746,0.189486 0.0738,0.189783 0.073,0.19008 0.0724,0.190366 0.0716,0.190652 0.0709,0.190916 0.0701,0.191202 0.0694,0.191477 0.0686,0.191741 0.0679,0.192016 0.0671,0.192291 0.0663,0.192533 0.0656,0.192797 0.0648,0.193061 0.064,0.193314 0.0632,0.193567 0.0626,0.193809 0.0617,0.19404 0.061,0.194304 0.0603,0.194513 0.0595,0.194777 0.0587,0.194997 0.058,0.195228 0.0572,0.195448 0.0564,0.195679 0.0557,0.195899 0.0549,0.196108 0.0541,0.196339 0.0533,0.196537 0.0526,0.196746 0.0518,0.196944 0.051,0.197164 0.0503,0.197351 0.0495,0.19756 0.0487,0.197736 0.0479,0.197923 0.0472,0.198121 0.0463,0.198297 0.0455,0.198484 0.0448,0.19866 0.044,0.198825 0.0432,0.199012 0.0425,0.199177 0.0417,0.199342 0.0409,0.199496 0.0401,0.199661 0.0394,0.199815 0.0385,0.199969 0.0378,0.200123 0.037,0.200255 0.0362,0.200409 0.0354,0.200563 0.0345,0.200684 0.0339,0.200816 0.033,0.200959 0.0322,0.20108 0.0315,0.201201 0.0307,0.201344 0.0299,0.201443 0.0292,0.201564 0.0283,0.201663 0.0276,0.201795 0.0267,0.201883 0.026,0.202004 0.0251,0.202092 0.0243,0.202191 0.0235,0.20229 0.0228,0.202378 0.0219,0.202466 0.0211,0.202554 0.0203,0.20262 0.0196,0.202719 0.0188,0.202785 0.0179,0.202851 0.0172,0.202928 0.0164,0.202994 -4.69997,0.369897 M 91.508385,67.40825 l 3.584955,-3.061821 0.131945,0.155124 0.131351,0.155617 0.130735,0.156156 0.130119,0.156665 0.129492,0.15718 0.128898,0.157673 0.128271,0.158173 0.127633,0.158689 0.127006,0.15919 0.126401,0.159683 0.125774,0.160175 0.125125,0.160676 0.12452,0.161161 0.123849,0.161638 0.123255,0.162139 0.122595,0.162617 0.121935,0.163101 0.12133,0.163571 0.120681,0.164049 0.120021,0.164541 0.119383,0.164988 0.118734,0.165457 0.118063,0.165928 0.117436,0.166381 0.116765,0.166836 0.116127,0.167306 0.115456,0.167767 0.114807,0.168199 0.114125,0.168676 0.113487,0.169108 0.112805,0.169546 0.112145,0.170001 0.111463,0.170424 0.110814,0.170878 0.110132,0.171294 0.10945,0.171741 0.10879,0.172157 0.10813,0.17258 0.10747,0.173027 0.1067,0.173434 0.10604,0.173851 0.105382,0.174266 0.10472,0.174675 0.10406,0.175084 0.10329,0.175483 0.10263,0.175912 0.10197,0.176297 0.1012,0.176693 0.10054,0.1771 0.0999,0.177496 0.0991,0.177881 0.0984,0.178255 0.0978,0.178673 0.097,0.179025 0.0964,0.179421 0.0957,0.179795 0.0949,0.180169 0.0943,0.180532 0.0935,0.180906 0.0928,0.181269 0.0921,0.181632 0.0914,0.182017 0.0906,0.182347 0.09,0.18271 0.0892,0.183062 0.0885,0.183414 0.0878,0.183744 0.0871,0.184107 0.0863,0.184426 0.0856,0.184789 0.0849,0.185108 0.0841,0.185438 0.0834,0.185768 0.0827,0.18612 0.082,0.186417 0.0813,0.186725 0.0805,0.187066 0.0798,0.187385 0.0791,0.187693 0.0783,0.18799 m -29.870326,-23.710538 1.804154,-4.355636 0.188001,0.0783 0.187682,0.07905 0.187374,0.07977 0.187077,0.08051 0.186736,0.08125 0.186417,0.08198 0.186109,0.08271 0.185757,0.08345 0.18546,0.08416 0.185097,0.0849 0.184789,0.08564 0.184426,0.08636 0.184107,0.08707 0.183744,0.0878 0.183425,0.08852 0.183051,0.08923 0.182721,0.08995 0.182336,0.0907 0.182006,0.09137 0.181643,0.0921 0.181269,0.09282 0.180917,0.09351 0.180543,0.09423 0.180147,0.09494 0.179795,0.09564 0.179432,0.09636 0.179014,0.09706 0.178651,0.09775 0.178266,0.09847 0.177892,0.09916 0.177485,0.09986 0.1771,0.100551 0.176704,0.101244 0.176297,0.101937 0.175901,0.102641 0.175494,0.103312 0.175087,0.104016 0.17468,0.104698 0.174262,0.105391 0.173844,0.106062 0.173437,0.106744 0.173008,0.107426 0.172601,0.108119 0.172161,0.10879 0.171732,0.109461 0.171303,0.110133 0.170863,0.110803 0.170445,0.111466 0.169994,0.112142 0.169554,0.112813 0.169092,0.113483 0.168652,0.114137 0.168223,0.114807 0.167761,0.115454 0.167299,0.116123 0.166859,0.116763 0.166386,0.117433 0.165913,0.118072 0.165473,0.118734 0.164989,0.11938 0.164516,0.120036 0.164054,0.120666 0.163581,0.121329 0.163086,0.121945 0.162624,0.122592 0.16214,0.123238 0.161634,0.12387 0.161172,0.124502 0.160677,0.12514 0.16016,0.125764 0.159698,0.126388 0.159181,0.127027 0.158686,0.127635 0.158202,0.128267 0.157663,0.128882 0.157168,0.129507 0.156662,0.130122 0.156145,0.130738 0.155628,0.131347 0.155133,0.131947 -3.061828,3.584951 m -26.91929,-11.150347 0.3699,-4.699957 0.202988,0.0164 0.202941,0.01717 0.202849,0.01794 0.202779,0.01879 0.20271,0.01956 0.202641,0.02033 0.202541,0.02117 0.202471,0.02195 0.20238,0.02271 0.202279,0.02356 0.202194,0.02433 0.202094,0.0251 0.202002,0.02595 0.201894,0.02672 0.201786,0.02749 0.201671,0.02834 0.20157,0.02911 0.201448,0.02988 0.201324,0.03065 0.201193,0.03142 0.201093,0.03226 0.200955,0.03303 0.200824,0.0338 0.200685,0.03465 0.200546,0.03542 0.200408,0.03619 0.20027,0.03696 0.200123,0.03781 0.199969,0.03858 0.199815,0.03935 0.199661,0.04012 0.199499,0.04089 0.199345,0.04166 0.199161,0.0425 0.199014,0.04327 0.198829,0.04404 0.198668,0.04481 0.198475,0.04558 0.198298,0.04635 0.198121,0.04712 0.197936,0.04797 0.197744,0.04874 0.19755,0.04951 0.197351,0.05028 0.197142,0.05105 0.196966,0.05182 0.196746,0.05259 0.196548,0.05336 0.196317,0.05413 0.196108,0.0549 0.195888,0.05567 0.19569,0.05644 0.195448,0.05721 0.195239,0.05798 0.194986,0.05875 0.194766,0.05952 0.194546,0.06029 0.194271,0.06106 0.194062,0.06175 0.193809,0.06252 0.193556,0.06329 0.193314,0.06406 0.19305,0.06483 0.192808,0.0656 0.192544,0.06637 0.192269,0.06707 0.192016,0.06784 0.191752,0.06861 0.191477,0.06938 0.191202,0.07015 0.190927,0.07084 0.190652,0.07161 0.190355,0.07238 0.190069,0.07307 0.189805,0.07384 0.189497,0.07461 0.189189,0.07538 0.188925,0.07608 0.188584,0.07685 0.188309,0.07756 m 27.29923,47.911939 h 5.18597 l -5.4e-4,-0.256872 -0.002,-0.256872 -0.003,-0.256861 -0.004,-0.256839 -0.005,-0.256817 -0.007,-0.256795 -0.008,-0.25674 -0.01,-0.256707 -0.011,-0.256652 -0.012,-0.256597 -0.0132,-0.256542 -0.0145,-0.256465 -0.0157,-0.256399 -0.017,-0.256311 -0.0183,-0.256223 -0.0195,-0.256135 -0.0208,-0.256047 -0.022,-0.255926 -0.0232,-0.255827 -0.0245,-0.255706 -0.0259,-0.255574 -0.0271,-0.255442 -0.0284,-0.255321 -0.0296,-0.255167 -0.0308,-0.255024 -0.032,-0.25487 -0.0333,-0.254716 -0.0345,-0.25454 -0.0357,-0.254364 -0.0371,-0.254188 -0.0384,-0.254012 -0.0396,-0.253814 -0.0408,-0.253616 -0.042,-0.253407 -0.0432,-0.253209 -0.0446,-0.252978 -0.0459,-0.252769 -0.047,-0.252549 -0.0483,-0.252307 -0.0495,-0.252054 -0.0507,-0.251823 -0.0519,-0.25157 -0.0532,-0.251306 -0.0545,-0.251042 -0.0557,-0.250778 -0.0569,-0.250503 -0.0582,-0.250217 -0.0594,-0.24992 -0.0606,-0.249645 -0.0618,-0.249326 -0.063,-0.249029 -0.0642,-0.24871 -0.0654,-0.248402 -0.0667,-0.248072 -0.0679,-0.247731 -0.0692,-0.247412 -0.0704,-0.24706 -0.0715,-0.246708 -0.0728,-0.246356 -0.0739,-0.246004 -0.0751,-0.245641 -0.0763,-0.245256 -0.0776,-0.244893 -0.0788,-0.244486 -0.08,-0.244112 -0.0812,-0.243716 -0.0824,-0.24332 -0.0836,-0.242913 -0.0847,-0.242495 -0.0859,-0.242066 -0.0871,-0.241648 -0.0883,-0.241219 -0.0894,-0.240779 -0.0907,-0.24035 -0.0918,-0.239888 -0.0931,-0.239437 -0.0942,-0.238986 -0.0954,-0.238513 -0.0966,-0.23804 -0.0978,-0.237556 -0.43557,0.180411 m 0.43557,-0.180411 -0.0989,-0.237083 -0.1,-0.236599 -0.1012,-0.236104 -0.10241,-0.235598 -0.10351,-0.235103 -0.10472,-0.234586 -0.10582,-0.234069 -0.10692,-0.233541 -0.10813,-0.233024 -0.10923,-0.232474 -0.1104,-0.231957 -0.11153,-0.231396 -0.11267,-0.230846 -0.11382,-0.230307 -0.11492,-0.229724 -0.11605,-0.229163 -0.1172,-0.228602 -0.11829,-0.227997 -0.11943,-0.227447 -0.12052,-0.226853 -0.12166,-0.226237 -0.12275,-0.225643 -0.12386,-0.225038 -0.12496,-0.224444 -0.12608,-0.223817 -0.12715,-0.223201 -0.12826,-0.222563 -0.12936,-0.221936 -0.13042,-0.22129 -0.13154,-0.220658 -0.13259,-0.220013 -0.1337,-0.219357 -0.13475,-0.21868 -0.13582,-0.218049 -0.13691,-0.217348 -0.137962,-0.216693 -0.139007,-0.216 L 99.454546,69.3818 99.313394,69.16717 99.171039,68.95259 99.027797,68.739347 98.883532,68.526827 98.738178,68.315 98.591823,68.103896 98.444434,67.893517 98.296,67.683869 l -0.149435,-0.208932 -0.150502,-0.208185 -0.151492,-0.207453 -0.152515,-0.206691 -0.153538,-0.20596 -0.154517,-0.205189 -0.155562,-0.204443 -0.156541,-0.203673 -0.157542,-0.202887 -0.158532,-0.202125 -0.159522,-0.201332 -0.160534,-0.200569 -0.16148,-0.199762 -0.16247,-0.19896 -0.16346,-0.198182 -0.164417,-0.197351 -0.165385,-0.196566 -0.166342,-0.195742 -0.167321,-0.194902 -0.168256,-0.194109 -0.169213,-0.19327 -0.170159,-0.192439 -0.171116,-0.191607 -0.17204,-0.190744 -0.172975,-0.189921 -0.173899,-0.18905 -0.174823,-0.188196 -0.175769,-0.187356 -0.17666,-0.186479 -0.177595,-0.1856 -0.178475,-0.184747 -0.17941,-0.18386 -0.180301,-0.182975 -0.181192,-0.182074 -3.667026,3.667009 M 92.66301,61.022538 92.480927,60.841333 92.297953,60.661046 92.114088,60.481643 91.929365,60.30315 91.743762,60.125565 91.55729,59.948888 91.369938,59.773143 91.181717,59.598307 90.992671,59.42441 90.802745,59.251422 90.611994,59.079381 90.420407,58.908279 90.22794,58.738117 90.034692,58.568909 89.840608,58.400649 89.645666,58.233343 89.449932,58.066985 89.253373,57.901604 89.056011,57.737179 88.857846,57.573731 88.658878,57.411268 88.459107,57.249761 88.258555,57.089247 88.057211,56.929726 87.855086,56.771175 87.652202,56.613641 87.448515,56.457107 87.24408,56.301552 87.038897,56.147021 86.832955,55.99349 l -0.206712,-0.152521 -0.207449,-0.151498 -0.208175,-0.150473 -0.208945,-0.149465 -0.20966,-0.148425 -0.210375,-0.147393 -0.21109,-0.146354 -0.211827,-0.14533 -0.212531,-0.144283 -0.213235,-0.14325 -0.213939,-0.142181 -0.214621,-0.141141 -0.215336,-0.140071 -0.216007,-0.139039 -0.216678,-0.137945 -0.217371,-0.136906 -0.218042,-0.135836 -0.21868,-0.134742 -0.219351,-0.133695 -0.22,-0.132594 -0.22066,-0.131516 -0.221309,-0.130438 -0.221925,-0.129345 -0.222585,-0.128266 -0.22319,-0.127166 -0.223806,-0.126057 -0.224433,-0.124971 -0.22506,-0.123869 -0.225632,-0.122754 -0.226259,-0.121637 -0.226831,-0.120536 -0.227447,-0.119419 -0.228019,-0.11831 -0.228591,-0.117187 -0.229163,-0.116046 -0.229724,-0.114938 -0.230296,-0.113806 -0.230857,-0.112667 -0.231396,-0.111542 -0.231946,-0.110395 -0.232485,-0.109263 -0.233024,-0.108108 -0.233541,-0.106964 -0.234058,-0.105842 -0.234597,-0.104665 -0.235092,-0.10351 -0.235609,-0.102377 -0.236093,-0.101211 -0.236599,-0.100056 -0.237094,-0.09888 -0.180411,0.435566 m 0.180411,-0.435566 -0.237556,-0.09772 -0.23804,-0.09656 -0.238513,-0.09539 -0.238986,-0.0942 -0.239437,-0.09304 -0.239888,-0.09186 -0.24035,-0.09067 -0.240779,-0.08951 -0.241208,-0.08831 -0.241648,-0.08713 -0.242088,-0.08595 -0.242484,-0.08474 -0.242913,-0.08358 -0.243309,-0.08237 -0.243705,-0.08117 -0.244112,-0.08 -0.244508,-0.07878 -0.244882,-0.07758 -0.245267,-0.07638 -0.24563,-0.07515 -0.245993,-0.074 -0.246367,-0.07277 -0.246719,-0.07153 -0.24706,-0.0703 -0.247401,-0.06915 -0.247742,-0.06791 -0.248061,-0.06668 -0.248413,-0.06545 -0.24871,-0.06422 -0.249018,-0.06306 -0.249348,-0.06183 -0.249626,-0.0606 -0.249942,-0.05937 -0.250212,-0.05814 -0.250481,-0.0569 -0.250781,-0.05567 -0.251051,-0.05444 -0.251312,-0.05321 -0.251567,-0.05197 -0.251813,-0.05074 -0.252067,-0.04951 -0.252306,-0.04828 -0.252537,-0.04697 -0.25276,-0.04581 -0.252991,-0.04451 -0.253215,-0.04327 -0.253399,-0.04204 -0.253631,-0.04081 -0.253807,-0.03958 -0.254008,-0.03835 -0.254192,-0.03704 -0.254354,-0.0358 -0.254554,-0.03457 -0.254709,-0.03334 -0.25487,-0.03211 -0.255024,-0.0308 -0.25517,-0.02957 -0.255317,-0.02834 -0.255439,-0.02703 -0.255579,-0.02579 -0.255709,-0.02456 -0.255825,-0.02333 -0.255925,-0.02202 -0.256032,-0.02079 -0.256141,-0.01956 -0.256225,-0.01825 -0.25631,-0.01702 -0.256402,-0.01579 -0.256464,-0.01448 -0.256533,-0.01324 -0.256611,-0.01194 -0.256648,-0.01067 -0.256711,-0.0095 -0.256741,-0.0081 -0.256802,-0.0069 -0.256803,-0.0054 -0.256841,-0.0046 -0.256865,-0.0031 -0.256879,-0.0015 -0.256865,-5.93e-4 v 5.185958 m 48.347501,27.118824 0.43557,-0.180411 0.0986,0.239701 0.0975,0.240185 0.0962,0.240658 0.095,0.241142 0.0939,0.241593 0.0926,0.242044 0.0915,0.242517 0.0903,0.242946 0.0891,0.243397 0.0879,0.243826 0.0867,0.244244 0.0855,0.244695 0.0844,0.24508 0.0832,0.245509 0.0819,0.245916 0.0807,0.246312 0.0795,0.246708 0.0783,0.247082 0.0771,0.247467 0.0759,0.247852 0.0746,0.248226 0.0734,0.248567 0.0723,0.24893 0.0709,0.249304 0.0697,0.249623 0.0685,0.249975 0.0673,0.250305 0.0661,0.250635 0.0648,0.250954 0.0636,0.251262 0.0624,0.251581 0.0612,0.251889 0.06,0.252186 0.0586,0.252461 0.0573,0.252758 0.0562,0.253033 0.0549,0.253297 0.0537,0.253583 0.0525,0.253836 0.0511,0.254078 0.0499,0.254342 0.0487,0.254584 0.0474,0.254804 0.0462,0.255046 0.045,0.255266 0.0438,0.255486 0.0425,0.255695 0.0411,0.255915 0.0399,0.256091 0.0386,0.2563 0.0374,0.256476 0.0361,0.256663 0.0349,0.256839 0.0337,0.256993 0.0323,0.257158 0.0311,0.257334 0.0299,0.257466 0.0286,0.25762 0.0274,0.257741 0.0261,0.257895 0.0247,0.258005 0.0234,0.258126 0.0222,0.258236 0.0209,0.258335 0.0197,0.258456 0.0184,0.258522 0.0172,0.258621 0.0158,0.258709 0.0146,0.258786 0.0134,0.258852 0.0121,0.258907 0.011,0.258962 0.01,0.259017 0.009,0.259061 0.007,0.259105 0.005,0.259127 0.004,0.25916 0.003,0.259171 0.002,0.259182 5.4e-4,0.259193 h -0.47146 M 92.663104,61.023111 92.99647,60.68974 l 0.18282,0.183729 0.181907,0.184623 0.181038,0.185509 0.180081,0.186401 0.17919,0.187272 0.178266,0.188165 0.177331,0.189027 0.176407,0.189905 0.175483,0.19076 0.174515,0.191622 0.173602,0.192477 0.172645,0.193324 0.171699,0.194163 0.170742,0.195026 0.169763,0.195842 0.168828,0.196673 0.167838,0.197505 0.166892,0.198329 0.165902,0.199137 0.164912,0.199969 0.163955,0.200755 0.162932,0.20157 0.161975,0.202356 0.160941,0.203157 0.159973,0.203935 0.158972,0.204735 0.157949,0.205505 0.156937,0.20626 0.155925,0.207045 0.154924,0.2078 0.153879,0.20857 0.152867,0.209317 0.151844,0.210064 0.15081,0.210818 0.149765,0.211542 0.14872,0.212274 0.147686,0.213005 0.146619,0.213721 0.145574,0.21446 0.144529,0.215146 0.143484,0.21587 0.142395,0.21657 0.14135,0.217271 0.140294,0.21794 0.13919,0.218642 0.13813,0.219311 0.13705,0.219997 0.13598,0.220667 0.13486,0.221336 0.13383,0.221991 0.13269,0.22263 0.13162,0.223293 0.13051,0.223928 0.12942,0.224587 0.12829,0.225214 0.12721,0.225819 0.1261,0.226468 0.12498,0.227062 0.12385,0.227689 0.12275,0.228272 0.12161,0.228899 0.12048,0.229482 0.1194,0.230076 0.11823,0.230648 0.11711,0.231231 0.11595,0.231803 0.11484,0.232364 0.11368,0.232925 0.11255,0.233497 0.1114,0.234047 0.11023,0.234575 0.10912,0.235114 0.10791,0.235642 0.10681,0.23617 0.1056,0.236698 0.1045,0.237226 0.10329,0.237721 0.10208,0.238216 0.10098,0.238733 0.0998,0.239228 m -28.75688,-28.140907 0.180422,-0.435558 0.239217,0.09977 0.238733,0.100958 0.238216,0.102102 0.237732,0.10329 0.237204,0.104445 0.236698,0.105633 0.236192,0.106766 0.235642,0.107943 0.235103,0.109087 0.234597,0.110249 0.234025,0.11138 0.233486,0.112551 0.232936,0.113675 0.232353,0.114846 0.231814,0.11597 0.231242,0.117093 0.230648,0.118234 0.230065,0.119381 0.229482,0.120489 0.228899,0.121622 0.228283,0.122753 0.227689,0.123847 0.227073,0.124986 0.226435,0.126088 0.225841,0.127212 0.225192,0.128305 0.224598,0.129414 0.223916,0.130507 0.223289,0.131616 0.222662,0.13271 0.22198,0.133795 0.221342,0.134881 0.220649,0.135966 0.219989,0.137068 0.219329,0.138115 0.218647,0.1392 0.217932,0.140279 0.217294,0.141341 0.216546,0.142419 0.215875,0.143467 0.215149,0.144537 0.214445,0.145568 0.21373,0.146639 0.213004,0.147686 0.212289,0.148725 0.211519,0.149773 0.210826,0.150797 0.210056,0.151828 0.209341,0.152869 0.208538,0.153876 0.207823,0.154932 0.207042,0.155917 0.206272,0.156942 0.205513,0.157965 0.20471,0.158959 0.203929,0.159968 0.203159,0.160945 0.202367,0.161977 0.201564,0.16294 0.200772,0.163948 0.199936,0.164919 0.199155,0.165896 0.198319,0.166875 0.197516,0.167844 0.196669,0.168838 0.195844,0.169778 0.195008,0.170724 0.194183,0.171695 0.193325,0.172634 0.192467,0.173604 0.19162,0.174536 0.190762,0.175467 0.189904,0.176407 0.189035,0.177347 0.188166,0.178255 0.187264,0.179179 0.186406,0.180103 0.185526,0.181027 0.184613,0.181912 0.183733,0.182829 M 55.658392,45.695809 v -0.471456 l 0.259182,5.93e-4 0.25919,0.0023 0.259166,0.0031 0.259167,0.0046 0.25912,0.0054 0.259098,0.0069 0.259058,0.0083 0.259021,0.0096 0.258966,0.01078 0.258913,0.01209 0.258858,0.01332 0.258774,0.01463 0.258705,0.01586 0.25862,0.01717 0.258543,0.0184 0.258442,0.01971 0.258343,0.02094 0.258243,0.02225 0.258111,0.02349 0.258012,0.02479 0.257888,0.02603 0.25775,0.02734 0.257611,0.02857 0.257473,0.0298 0.257319,0.03111 0.257156,0.03234 0.257011,0.03365 0.256834,0.03488 0.256656,0.03611 0.256487,0.03742 0.256287,0.03865 0.256117,0.03996 0.255887,0.04119 0.255701,0.04243 0.255486,0.04366 0.255271,0.04497 0.255039,0.0462 0.254816,0.04743 0.254585,0.04866 0.254339,0.04997 0.254084,0.05121 0.253823,0.05244 0.253584,0.05367 0.253292,0.0549 0.253037,0.05621 0.25276,0.05744 0.252476,0.05867 0.252175,0.05991 0.251882,0.06114 0.251573,0.06237 0.251262,0.0636 0.250976,0.06483 0.250624,0.06607 0.250294,0.0673 0.249975,0.06853 0.249645,0.06976 0.249282,0.07099 0.24893,0.07223 0.248578,0.07338 0.248226,0.07461 0.24783,0.07585 0.247478,0.07707 0.247093,0.07828 0.246708,0.07949 0.246312,0.0807 0.245916,0.08192 0.245498,0.08312 0.245091,0.08432 0.244684,0.08551 0.244255,0.08671 0.243826,0.08792 0.243397,0.08911 0.242946,0.09031 0.242506,0.0915 0.242055,0.0927 0.241593,0.09387 0.241131,0.09506 0.240658,0.09624 0.240185,0.09743 0.239723,0.0986 m -20.206608,-4.019354 -0.259205,5.93e-4 -0.259182,0.0023 -0.259174,0.0031 -0.259144,0.0046 -0.259143,0.0054 -0.259098,0.0069 -0.259058,0.0083 -0.259013,0.0096 -0.258974,0.01078 -0.258905,0.01209 -0.258859,0.01332 -0.258773,0.01463 -0.258705,0.01594 -0.258628,0.01717 -0.258535,0.0184 -0.258435,0.01971 -0.25835,0.02094 -0.258235,0.02225 -0.258127,0.02349 -0.258004,0.02479 -0.257881,0.02603 -0.25775,0.02734 -0.257619,0.02857 -0.257465,0.0298 -0.257318,0.03111 -0.257165,0.03234 -0.257018,0.03365 -0.256834,0.03488 -0.256664,0.03611 -0.256479,0.03742 -0.256287,0.03865 -0.256102,0.03996 -0.255894,0.0412 -0.255709,0.04243 -0.255478,0.04366 -0.255263,0.04497 -0.255047,0.0462 -0.254816,0.04743 -0.254578,0.04866 -0.254331,0.04997 -0.2541,0.0512 -0.25383,0.05244 -0.253561,0.05367 -0.253323,0.0549 -0.253037,0.05621 -0.252737,0.05744 -0.252475,0.05867 -0.252175,0.05991 -0.25189,0.06114 -0.251583,0.06237 -0.251258,0.0636 -0.250959,0.06483 -0.250642,0.06607 -0.250312,0.0673 -0.249957,0.06853 -0.249642,0.06976 -0.249288,0.07099 -0.248941,0.07223 -0.248571,0.07338 -0.248209,0.07461 -0.247856,0.07585 -0.247478,0.07707 -0.247085,0.07828 -0.246708,0.07949 -0.2463,0.0807 -0.245907,0.08192 -0.245507,0.08311 -0.245099,0.08431 -0.244675,0.08552 -0.244267,0.08671 -0.24382,0.08792 -0.243397,0.0891 -0.242951,0.09032 -0.242498,0.0915 -0.242061,0.0927 -0.241595,0.09386 -0.241117,0.09506 -0.240669,0.09624 -0.240189,0.09743 -0.239703,0.0986 -0.23923,0.09977 -0.238718,0.100958 -0.238227,0.102102 -0.237721,0.10329 -0.237219,0.104456 -0.236696,0.105622 -0.236175,0.106777 -0.235656,0.107943 -0.235116,0.109087 -0.234573,0.110249 -0.234039,0.11138 -0.233485,0.112551 -0.232928,0.113683 -0.23238,0.114838 -0.231796,0.115969 -0.23122,0.117094 -0.230666,0.118241 -0.230071,0.119373 -0.22948,0.12049 -0.228882,0.121629 -0.228298,0.122754 -0.227668,0.123839 -0.227075,0.124986 -0.226451,0.126095 -0.225835,0.127212 -0.225221,0.128297 -0.224558,0.129414 -0.223939,0.130508 -0.223302,0.131616 -0.222628,0.132709 -0.221999,0.133795 -0.221329,0.134881 -0.220672,0.135975 -0.219988,0.13706 -0.219324,0.138115 -0.218634,0.1392 -0.217951,0.140279 -0.21726,0.141349 -0.21657,0.142411 -0.21587,0.143467 -0.215152,0.144536 -0.214447,0.145569 -0.213719,0.146646 -0.213013,0.147679 -0.212284,0.148725 -0.211541,0.149773 -0.210809,0.150797 -0.210065,0.151828 -0.20931,0.152868 -0.208571,0.153885 -0.207801,0.154924 -0.207041,0.155917 -0.206275,0.156941 -0.205504,0.157966 -0.204723,0.158951 -0.203953,0.159975 -0.203149,0.160946 -0.202361,0.161985 -0.201565,0.162932 -0.200756,0.163956 -0.199963,0.164911 -0.199134,0.165904 -0.19833,0.166866 -0.197506,0.167853 -0.196682,0.16883 -0.195845,0.169777 -0.19501,0.170732 -0.194175,0.171687 -0.193317,0.172642 -0.192483,0.173596 -0.19162,0.174536 -0.190763,0.175468 -0.189895,0.176407 -0.189027,0.177346 -0.18816,0.178263 -0.18728,0.179179 -0.186409,0.180095 -0.185507,0.181027 -0.184624,0.181921 -0.183728,0.182821 -0.182818,0.183729 -0.181929,0.184623 -0.181013,0.185501 -0.180095,0.186417 -0.179186,0.187272 -0.178264,0.188157 -0.177342,0.189019 -0.176398,0.189906 -0.175476,0.190767 -0.174534,0.191615 -0.173595,0.192484 -0.172642,0.193324 -0.171699,0.194163 -0.170728,0.195018 -0.169785,0.19585 -0.168815,0.196673 -0.16785,0.197505 -0.166874,0.198329 -0.165899,0.199137 -0.164924,0.199969 -0.163936,0.200755 -0.162956,0.201563 -0.161953,0.202363 -0.160973,0.203149 -0.159953,0.203935 -0.158974,0.204735 -0.157953,0.205506 -0.156936,0.206267 -0.155933,0.207045 -0.154913,0.2078 -0.15389,0.208563 -0.15286,0.209316 -0.151836,0.210064 -0.150803,0.210818 -0.149771,0.21155 -0.148721,0.212266 -0.147675,0.213013 -0.14664,0.213713 -0.145584,0.214468 -0.144533,0.215146 -0.143466,0.215862 -0.142404,0.216578 -0.141347,0.217263 -0.140269,0.217949 -0.139218,0.218641 -0.138125,0.219311 -0.137057,0.219989 -0.135967,0.220675 -0.13488,0.221329 -0.133802,0.221998 -0.132712,0.22263 -0.131603,0.223293 -0.1305125,0.223938 -0.1294194,0.224576 -0.128304,0.225214 -0.127204,0.22583 -0.1260886,0.226468 -0.1249721,0.227062 -0.1238677,0.227689 -0.1227468,0.228272 -0.1216138,0.228899 -0.120505,0.229471 -0.119361,0.230076 -0.1182401,0.230648 -0.1171148,0.231242 -0.1159598,0.231792 -0.114829,0.232375 -0.1136806,0.232925 -0.1125487,0.233486 -0.1113893,0.234047 -0.110242,0.234575 -0.109098,0.235114 -0.107932,0.235664 -0.106766,0.236159 -0.105622,0.236698 -0.104467,0.237215 -0.103279,0.237732 -0.102124,0.238216 -0.100947,0.238733 -0.099781,0.239217 -0.098604,0.239712 -0.097438,0.240185 -0.096228,0.240658 -0.095062,0.241131 -0.093874,0.241593 -0.092686,0.242055 -0.091498,0.242506 -0.09031,0.242957 -0.089122,0.243397 -0.087912,0.243815 -0.086713,0.244255 -0.085525,0.244684 -0.084326,0.245091 -0.083116,0.245498 -0.081917,0.245916 -0.080707,0.246323 -0.079486,0.246697 -0.078276,0.247093 -0.077055,0.247456 -0.075845,0.247852 -0.074635,0.248226 -0.073403,0.248567 -0.072193,0.248941 -0.070972,0.249293 -0.06974,0.249634 -0.068519,0.249964 -0.067298,0.250305 -0.066077,0.250635 -0.064812,0.250965 -0.063613,0.251262 -0.062359,0.251581 -0.061127,0.251889 -0.059895,0.252175 -0.058641,0.252472 -0.05742,0.252747 -0.056166,0.253033 -0.054923,0.253308 -0.05368,0.253583 -0.052448,0.253836 -0.051205,0.254078 -0.049962,0.254342 -0.048675,0.254573 -0.047432,0.254815 -0.046189,0.255046 -0.044957,0.255255 -0.043659,0.255486 -0.042416,0.255706 -0.041184,0.255904 -0.039886,0.256091 -0.038643,0.2563 -0.037411,0.256476 -0.036168,0.256674 -0.03487,0.256828 -0.033638,0.257004 -0.03234,0.257158 -0.031097,0.257323 -0.02981,0.257466 -0.028567,0.25762 -0.027324,0.257752 -0.026037,0.257884 -0.024794,0.258005 -0.023496,0.258126 -0.022209,0.258236 -0.020966,0.258335 -0.019723,0.258456 -0.018436,0.258533 -0.017138,0.258621 -0.015895,0.258698 -0.014608,0.258786 -0.013365,0.258863 -0.012078,0.258896 -0.01078,0.258973 -0.00957,0.259006 -0.00825,0.259061 -0.00704,0.259105 -0.00572,0.259127 -0.00429,0.25916 -0.00319,0.259182 -0.0022,0.259182 -5.39e-4,0.259193 5.39e-4,0.259193 0.0022,0.259182 0.00319,0.259171 0.00429,0.25916 0.00572,0.259116 0.00704,0.259105 0.00825,0.259061 0.00957,0.259014 0.01078,0.25897 0.012078,0.25891 0.013365,0.25885 0.014608,0.25879 0.015895,0.2587 0.017138,0.25862 0.018436,0.25853 0.019723,0.25845 0.020966,0.25834 0.022209,0.25824 0.023496,0.25812 0.024794,0.25802 0.026037,0.25787 0.027324,0.25776 0.028567,0.2576 0.02981,0.25748 0.031097,0.25732 0.03234,0.25716 0.033638,0.257 0.03487,0.25683 0.036168,0.25668 0.037411,0.25647 0.038643,0.25629 0.039886,0.2561 0.041184,0.25591 0.042416,0.25569 0.043659,0.25549 0.044957,0.25526 0.046189,0.25506 0.047432,0.2548 0.048675,0.25459 0.049962,0.25433 0.051205,0.25409 0.052448,0.25383 0.05368,0.25357 0.054923,0.2533 0.056166,0.25305 0.05742,0.25274 0.058641,0.25248 0.059895,0.25218 0.061127,0.25188 0.062359,0.25158 0.063613,0.25127 0.064812,0.25096 0.066077,0.25063 0.067298,0.25031 0.068519,0.24997 0.06974,0.24963 0.070972,0.24929 0.072193,0.24894 0.073403,0.24858 0.074635,0.24821 0.075845,0.24784 0.077055,0.24748 0.078276,0.2471 0.079486,0.24669 0.080707,0.24631 0.081917,0.24591 0.083116,0.24551 0.084326,0.2451 0.085525,0.24467 0.086713,0.24426 0.087912,0.24382 0.089122,0.24339 0.09031,0.24296 0.091498,0.24251 0.092686,0.24205 0.093874,0.24159 0.095062,0.24113 0.096228,0.24067 0.097438,0.24018 0.098604,0.23971 0.099781,0.23921 0.100947,0.23874 0.102124,0.23822 0.103279,0.23773 0.104467,0.23721 0.105622,0.2367 0.106766,0.23618 0.107932,0.23564 0.109098,0.23512 0.110242,0.23459 0.1113893,0.23403 0.1125487,0.23348 0.1136806,0.23294 0.114829,0.23235 0.1159598,0.23182 0.1171148,0.23123 0.1182401,0.23065 0.119361,0.23007 0.120505,0.22948 0.1216138,0.22888 0.1227468,0.22829 0.1238677,0.22768 0.1249721,0.22708 0.1260886,0.22645 0.127204,0.22583 0.128304,0.22521 0.1294194,0.22457 0.1305125,0.22395 0.131603,0.22328 0.132712,0.22265 0.133802,0.22198 0.13488,0.22134 0.135967,0.22066 0.137057,0.22 0.138125,0.21931 0.139218,0.21866 0.140269,0.21794 0.141347,0.21726 0.142404,0.21657 0.143466,0.21586 0.144533,0.21515 0.145584,0.21446 0.14664,0.21373 0.147675,0.21299 0.148721,0.21228 0.149771,0.21156 0.150803,0.21081 0.151836,0.21005 0.15286,0.20931 0.15389,0.20857 0.154913,0.20781 0.155933,0.20704 0.156936,0.20628 0.157953,0.2055 0.158974,0.20472 0.159953,0.20394 0.160973,0.20317 0.161953,0.20236 0.162956,0.20156 0.163936,0.20076 0.164924,0.19996 0.165899,0.19913 0.166874,0.19833 0.16785,0.19751 0.168815,0.19668 0.169785,0.19584 0.170728,0.19502 0.171699,0.19416 0.172642,0.19333 0.173595,0.19247 0.174534,0.19162 0.175476,0.19078 0.176398,0.18989 0.177342,0.18903 0.178264,0.18816 0.179186,0.18727 0.180095,0.18641 0.181013,0.1855 0.181929,0.18463 0.182818,0.18373 0.183728,0.18283 0.184624,0.18191 0.185507,0.18103 0.186409,0.18009 0.18728,0.17919 0.18816,0.17826 0.189027,0.17734 0.189895,0.1764 0.190763,0.17547 0.19162,0.17453 0.192483,0.1736 0.193317,0.17264 0.194175,0.1717 0.19501,0.17075 0.195845,0.16975 0.196682,0.16883 0.197506,0.16786 0.19833,0.16687 0.199134,0.16589 0.199963,0.16492 0.200756,0.16395 0.201565,0.16295 0.202361,0.16195 0.203149,0.16097 0.203953,0.15997 0.204723,0.15895 0.205504,0.15796 0.206275,0.15694 0.207041,0.15593 0.207801,0.15493 0.208571,0.15386 0.20931,0.15288 0.210065,0.15184 0.210809,0.15079 0.211541,0.14977 0.212284,0.14873 0.213013,0.14768 0.213719,0.14664 0.214447,0.14557 0.215152,0.14453 0.21587,0.14348 0.21657,0.14241 0.21726,0.14134 0.217951,0.14028 0.218634,0.1392 0.219324,0.13812 0.219988,0.13706 0.220672,0.13597 0.221329,0.13489 0.221999,0.13379 0.222628,0.13271 0.223302,0.13161 0.223939,0.13051 0.224558,0.12942 0.225221,0.1283 0.225835,0.12721 0.226451,0.12609 0.227075,0.12497 0.227668,0.12386 0.228298,0.12275 0.228882,0.12163 0.22948,0.12049 0.230071,0.11937 0.230666,0.11824 0.23122,0.1171 0.231796,0.11597 0.23238,0.11484 0.232928,0.11367 0.233485,0.11255 0.234039,0.11139 0.234573,0.11024 0.235116,0.10912 0.235656,0.10791 0.236175,0.10681 0.236696,0.1056 0.237219,0.1045 0.237721,0.10329 0.238227,0.10208 0.238718,0.10098 0.23923,0.0998 0.239703,0.0986 0.240189,0.0975 0.240669,0.0962 0.241117,0.095 0.241595,0.0938 0.242061,0.0927 0.242498,0.0915 0.242951,0.0903 0.243397,0.0891 0.24382,0.0879 0.244267,0.0867 0.244675,0.0855 0.245099,0.0844 0.245507,0.083 0.245907,0.082 0.2463,0.0807 0.246708,0.0795 0.247085,0.0783 0.247478,0.0771 0.247856,0.0759 0.248209,0.0746 0.248571,0.0734 0.248941,0.0722 0.249288,0.071 0.249642,0.0697 0.249957,0.0685 0.250312,0.0673 0.250642,0.0661 0.250959,0.0648 0.251258,0.0636 0.251583,0.0624 0.25189,0.0612 0.252175,0.06 0.252475,0.0586 0.252737,0.0574 0.253037,0.0562 0.253323,0.0549 0.253561,0.0537 0.25383,0.0525 0.2541,0.0513 0.254331,0.0499 0.254578,0.0486 0.254816,0.0474 0.255047,0.0462 0.255263,0.045 0.255478,0.0438 0.255709,0.0425 0.255894,0.0413 0.256102,0.0399 0.256287,0.0386 0.256479,0.0374 0.256664,0.0361 0.256834,0.0349 0.257018,0.0337 0.257165,0.0323 0.257318,0.0311 0.257465,0.0298 0.257619,0.0286 0.25775,0.0273 0.257881,0.0261 0.258004,0.0247 0.258127,0.0235 0.258235,0.0222 0.25835,0.0209 0.258435,0.0197 0.258535,0.0184 0.258628,0.0172 0.258705,0.0158 0.258773,0.0146 0.258859,0.0134 0.258905,0.0121 0.258974,0.011 0.259013,0.01 0.259058,0.008 0.259098,0.007 0.259143,0.005 0.259144,0.004 0.259174,0.003 0.259182,0.002 0.259205,5.4e-4 0.259182,-5.4e-4 0.25919,-0.002 0.259166,-0.003 0.259167,-0.004 0.25912,-0.005 0.259098,-0.007 0.259058,-0.008 0.259021,-0.01 0.258966,-0.011 0.258913,-0.0121 0.258858,-0.0134 0.258774,-0.0146 0.258705,-0.0158 0.25862,-0.0172 0.258543,-0.0184 0.258442,-0.0197 0.258343,-0.0209 0.258243,-0.0222 0.258111,-0.0235 0.258012,-0.0247 0.257888,-0.0261 0.25775,-0.0273 0.257611,-0.0286 0.257473,-0.0298 0.257319,-0.0311 0.257156,-0.0323 0.257011,-0.0337 0.256834,-0.0349 0.256656,-0.0361 0.256487,-0.0374 0.256287,-0.0386 0.256117,-0.0399 0.255887,-0.0413 0.255701,-0.0425 0.255486,-0.0438 0.255271,-0.045 0.255039,-0.0462 0.254816,-0.0474 0.254585,-0.0486 0.254339,-0.0499 0.254084,-0.0513 0.253823,-0.0525 0.253584,-0.0537 0.253292,-0.0549 0.253037,-0.0562 0.25276,-0.0574 0.252476,-0.0586 0.252175,-0.06 0.251882,-0.0612 0.251573,-0.0624 0.251262,-0.0636 0.250976,-0.0648 0.250624,-0.0661 0.250294,-0.0673 0.249975,-0.0685 0.249645,-0.0697 0.249282,-0.071 0.24893,-0.0722 0.248578,-0.0734 0.248226,-0.0746 0.24783,-0.0759 0.247478,-0.0771 0.247093,-0.0783 0.246708,-0.0795 0.246312,-0.0807 0.245916,-0.082 0.245498,-0.083 0.245091,-0.0844 0.244684,-0.0855 0.244255,-0.0867 0.243826,-0.0879 0.243397,-0.0891 0.242946,-0.0903 0.242506,-0.0915 0.242055,-0.0927 0.241593,-0.0938 0.241131,-0.095 0.240658,-0.0962 0.240185,-0.0975 0.239723,-0.0986 0.239217,-0.0998 0.238722,-0.10098 0.238216,-0.10208 0.237732,-0.10329 0.237215,-0.1045 0.236698,-0.1056 0.236181,-0.10681 0.235653,-0.10791 0.235103,-0.10912 0.234586,-0.11024 0.234036,-0.11139 0.233486,-0.11255 0.232925,-0.11367 0.232364,-0.11484 0.231803,-0.11597 0.231253,-0.1171 0.230648,-0.11824 0.230065,-0.11937 0.229482,-0.12049 0.228888,-0.12163 0.228283,-0.12275 0.227689,-0.12386 0.227073,-0.12497 0.226435,-0.12609 0.225841,-0.12721 0.225203,-0.1283 0.224587,-0.12942 0.223927,-0.13051 0.223289,-0.13161 0.222651,-0.13271 0.221991,-0.13379 0.221342,-0.13489 0.220638,-0.13597 0.22,-0.13706 0.219329,-0.13812 0.218636,-0.1392 0.217943,-0.14028 0.217283,-0.14134 0.216557,-0.14241 0.215864,-0.14348 0.215149,-0.14453 0.214445,-0.14557 0.21373,-0.14664 0.213015,-0.14768 0.212278,-0.14873 0.211519,-0.14977 0.210826,-0.15079 0.210056,-0.15184 0.209341,-0.15288 0.208549,-0.15386 0.207812,-0.15493 0.207042,-0.15593 0.206272,-0.15694 0.205513,-0.15796 0.204721,-0.15895 0.203929,-0.15997 0.203148,-0.16097 0.202378,-0.16195 0.201564,-0.16295 0.200761,-0.16395 0.199947,-0.16492 0.199144,-0.16589 0.198319,-0.16687 0.197527,-0.16786 0.196669,-0.16883 0.195844,-0.16975 0.195008,-0.17075 0.194172,-0.1717 0.193325,-0.17264 0.192467,-0.1736 0.19162,-0.17453 0.190773,-0.17547 0.189893,-0.1764 0.189035,-0.17734 0.188166,-0.17826 0.187264,-0.17919 0.186417,-0.18009 0.185515,-0.18103 0.184613,-0.18191 0.183744,-0.18283 0.182809,-0.18373 0.181918,-0.18463 0.181027,-0.1855 0.180081,-0.18641 0.179201,-0.18727 0.178266,-0.18816 0.177331,-0.18903 0.176407,-0.18989 0.175483,-0.19078 0.174504,-0.19162 0.173613,-0.19247 0.172645,-0.19333 0.171699,-0.19416 0.170731,-0.19502 0.169763,-0.19584 0.168828,-0.19668 0.167849,-0.19751 0.166892,-0.19833 0.165891,-0.19913 0.164923,-0.19996 0.163944,-0.20076 0.162932,-0.20156 0.161986,-0.20236 0.160941,-0.20317 0.159962,-0.20394 0.158972,-0.20472 0.15796,-0.2055 0.156937,-0.20628 0.155914,-0.20704 0.154924,-0.20781 0.15389,-0.20857 0.152867,-0.20931 0.151833,-0.21005 0.15081,-0.21081 0.149776,-0.21156 0.148709,-0.21228 0.147686,-0.21299 0.146619,-0.21373 0.145585,-0.21446 0.144529,-0.21515 0.143484,-0.21586 0.142395,-0.21657 0.14135,-0.21726 0.14028,-0.21794 0.13921,-0.21866 0.13813,-0.21931 0.13704,-0.22 0.13598,-0.22066 0.13487,-0.22134 0.13381,-0.22198 0.13269,-0.22265 0.13163,-0.22328 0.1305,-0.22395 0.12942,-0.22457 0.1283,-0.22521 0.12721,-0.22583 0.12609,-0.22645 0.12498,-0.22708 0.12386,-0.22768 0.12274,-0.22829 0.12162,-0.22888 0.12049,-0.22948 0.11939,-0.23007 0.11823,-0.23065 0.11711,-0.23123 0.11596,-0.23182 0.11483,-0.23235 0.11368,-0.23294 0.11254,-0.23348 0.1114,-0.23403 0.11024,-0.23459 0.10912,-0.23512 0.10791,-0.23564 0.10681,-0.23618 0.1056,-0.2367 0.1045,-0.23721 0.10329,-0.23773 0.10208,-0.23822 0.10098,-0.23874 0.0998,-0.23921 0.0986,-0.23971 0.0975,-0.24018 0.0963,-0.24067 0.095,-0.24113 0.0939,-0.24159 0.0927,-0.24205 0.0915,-0.24251 0.0903,-0.24296 0.0891,-0.24339 0.0879,-0.24382 0.0867,-0.24426 0.0855,-0.24467 0.0844,-0.2451 0.0832,-0.24551 0.0818,-0.24591 0.0807,-0.24631 0.0795,-0.24669 0.0782,-0.2471 0.0771,-0.24748 0.0759,-0.24784 0.0746,-0.24821 0.0734,-0.24858 0.0723,-0.24894 0.071,-0.24929 0.0697,-0.24963 0.0685,-0.24997 0.0673,-0.25031 0.0661,-0.25063 0.0648,-0.25096 0.0636,-0.25127 0.0624,-0.25158 0.0612,-0.25188 0.0599,-0.25218 0.0586,-0.25248 0.0574,-0.25274 0.0562,-0.25305 0.0549,-0.2533 0.0537,-0.25357 0.0525,-0.25383 0.0511,-0.25409 0.0499,-0.25433 0.0487,-0.25459 0.0474,-0.2548 0.0462,-0.25506 0.045,-0.25526 0.0438,-0.25549 0.0425,-0.25569 0.0411,-0.25591 0.0399,-0.2561 0.0386,-0.25629 0.0374,-0.25647 0.0361,-0.25668 0.0349,-0.25683 0.0337,-0.257 0.0323,-0.25716 0.0311,-0.25732 0.0299,-0.25748 0.0286,-0.2576 0.0274,-0.25776 0.0261,-0.25787 0.0247,-0.25802 0.0234,-0.25812 0.0222,-0.25824 0.0209,-0.25834 0.0197,-0.25845 0.0184,-0.25853 0.0172,-0.25862 0.0158,-0.2587 0.0146,-0.25879 0.0134,-0.25885 0.0121,-0.25891 0.011,-0.25897 0.01,-0.259014 0.009,-0.259061 0.007,-0.259105 0.006,-0.259116 0.004,-0.25916 0.003,-0.259171 0.002,-0.259182 5.4e-4,-0.259193 m 0.89128,-2.355001 2.8803,-0.0022 3.77161,-4.71449 15.08642,-4.714501 6.6003,11.786258 h 12.25768 V 97.71866 l -0.001,-0.30855 -0.003,-0.308561 -0.003,-0.308539 -0.004,-0.308528 -0.005,-0.308517 -0.007,-0.308495 -0.008,-0.308473 -0.009,-0.30844 -0.01,-0.308418 -0.011,-0.308385 -0.0117,-0.308341 -0.0125,-0.308297 -0.0138,-0.308275 -0.0146,-0.308209 -0.0155,-0.308176 -0.0166,-0.308099 -0.0177,-0.308077 -0.0186,-0.307978 -0.0197,-0.307934 -0.0207,-0.307879 -0.0217,-0.307791 -0.0227,-0.307725 -0.0238,-0.30767 -0.0248,-0.30756 -0.0257,-0.307483 -0.0267,-0.307417 -0.0277,-0.307307 -0.0287,-0.307219 -0.0297,-0.307131 -0.0307,-0.307032 -0.0317,-0.306922 -0.0327,-0.306812 -0.0338,-0.306724 -0.0348,-0.306581 -0.0358,-0.306493 -0.0367,-0.306372 -0.0378,-0.30624 -0.0387,-0.306119 -0.0398,-0.305987 -0.0407,-0.305855 -0.0417,-0.305723 -0.0428,-0.30558 -0.0438,-0.305437 -0.0448,-0.305305 -0.0458,-0.305151 -0.0469,-0.304997 -0.0477,-0.304843 -0.0488,-0.304689 -0.0497,-0.304513 -0.0507,-0.304359 -0.0517,-0.304194 -0.0528,-0.304018 -0.0538,-0.303853 -0.0548,-0.303677 -0.0558,-0.303479 -0.0568,-0.303303 -0.0577,-0.303105 -0.0586,-0.30294 -0.0596,-0.302742 -0.0607,-0.302533 -0.0617,-0.302324 -0.0627,-0.302126 -0.0637,-0.301939 -0.0647,-0.301708 -0.0656,-0.30151 -0.0666,-0.301279 -0.0676,-0.30107 -0.0686,-0.300839 -0.0696,-0.300619 -0.0705,-0.300388 -0.0715,-0.300157 -0.0725,-0.299904 -0.0735,-0.299706 -0.0745,-0.29942 -0.0755,-0.2992 -0.0764,-0.298947 -0.0774,-0.298683 -0.0784,-0.29843 -0.0794,-0.298199 -39.16318,10.493747 0.0377,0.141504 0.0373,0.141592 0.037,0.141702 0.0366,0.141812 0.0362,0.141889 0.0358,0.141999 0.0353,0.142087 0.035,0.142197 0.0345,0.142285 0.0342,0.142373 0.0339,0.142472 0.0334,0.14256 0.033,0.142659 0.0327,0.142747 0.0322,0.142824 0.0319,0.142912 0.0315,0.143011 0.0311,0.143088 0.0307,0.143176 0.0304,0.143264 0.0299,0.143341 0.0296,0.143418 0.0292,0.143495 0.0288,0.143583 0.0284,0.143649 0.0279,0.143748 0.0276,0.143803 0.0272,0.143891 0.0268,0.143946 0.0264,0.144045 0.0261,0.144089 0.0256,0.144177 0.0253,0.144243 0.0249,0.14432 0.0244,0.144375 0.0241,0.14443 0.0237,0.144518 0.0232,0.144573 0.0229,0.144639 0.0224,0.144694 0.0221,0.14476 0.0217,0.144815 0.0212,0.144881 0.0209,0.144936 0.0206,0.144991 0.0201,0.145046 0.0197,0.14509 0.0194,0.145156 0.0189,0.145211 0.0186,0.145255 0.0182,0.145299 0.0177,0.145365 0.0173,0.145398 0.0169,0.145442 0.0166,0.145508 0.0162,0.14553 0.0157,0.145585 0.0153,0.145629 0.015,0.145662 0.0145,0.145706 0.0142,0.14575 0.0137,0.145794 0.0134,0.145816 0.013,0.145849 0.0125,0.145893 0.0122,0.145926 0.0118,0.145959 0.0114,0.145992 0.011,0.146025 0.011,0.146047 0.01,0.14608 0.01,0.146102 0.01,0.146135 0.009,0.146157 0.009,0.146179 0.008,0.146212 0.008,0.146223 0.008,0.146256 0.007,0.146256 0.007,0.146278 m -6.01609,-22.452364 0.0674,0.129976 0.0671,0.130174 0.0667,0.130361 0.0663,0.130548 0.066,0.130735 0.0656,0.130878 0.0653,0.131087 0.0649,0.131263 0.0646,0.131428 0.0642,0.131604 0.0638,0.13178 0.0635,0.131956 0.0631,0.132132 0.0628,0.132297 0.0625,0.132462 0.062,0.132649 0.0617,0.132825 0.0613,0.132968 0.0609,0.133144 0.0606,0.133287 0.0602,0.133485 0.06,0.133639 0.0595,0.133793 0.0592,0.133969 0.0587,0.134134 0.0584,0.134266 0.0581,0.134431 0.0576,0.134607 0.0573,0.134761 0.057,0.134904 0.0567,0.135058 0.0562,0.135223 0.0558,0.135377 0.0554,0.135509 0.0551,0.135674 0.0548,0.135828 0.0543,0.13596 0.054,0.136136 0.0536,0.136257 0.0532,0.136411 0.0529,0.136565 0.0525,0.136697 0.0521,0.13684 0.0517,0.136972 0.0514,0.137126 0.0509,0.137269 0.0507,0.13739 0.0503,0.137544 0.0499,0.137676 0.0495,0.137819 0.0492,0.13794 0.0487,0.138083 0.0484,0.138215 0.0481,0.138336 0.0476,0.138457 0.0472,0.138611 0.0469,0.138732 0.0465,0.138864 0.0461,0.138985 0.0458,0.139106 0.0453,0.139227 0.045,0.139359 0.0446,0.13948 0.0442,0.13959 0.0438,0.139722 0.0434,0.139832 0.043,0.139964 0.0427,0.140074 0.0422,0.140184 0.042,0.140305 0.0416,0.140415 0.0413,0.140525 0.0407,0.140646 0.0405,0.140756 0.04,0.140855 0.0396,0.140976 0.0393,0.141064 0.0388,0.141196 0.0385,0.141273 0.0381,0.141394 m 39.16316,-10.493747 -0.0803,-0.297913 -0.0814,-0.297649 -0.0823,-0.297374 -0.0833,-0.297121 -0.0843,-0.296846 -0.0853,-0.29656 -0.0862,-0.296285 -0.0871,-0.29601 -0.0881,-0.295711 -0.0891,-0.295426 -0.0901,-0.295133 -0.0911,-0.294826 -0.092,-0.29454 -0.093,-0.294232 -0.0939,-0.293909 -0.0949,-0.29364 -0.0958,-0.293285 -0.0968,-0.293008 -0.0978,-0.29267 -0.0987,-0.292338 -0.0997,-0.29203 -0.10065,-0.291699 -0.10153,-0.291376 -0.10252,-0.291021 -0.1034,-0.290691 -0.1045,-0.290359 -0.10538,-0.290013 -0.10637,-0.289666 -0.10725,-0.289305 -0.10824,-0.288965 -0.10912,-0.288627 -0.11012,-0.288234 -0.11103,-0.287895 -0.11201,-0.287518 -0.11291,-0.287156 -0.11389,-0.286772 -0.11481,-0.286424 -0.11572,-0.286017 -0.1167,-0.285662 -0.11762,-0.28527 -0.11856,-0.284869 -0.11945,-0.284499 -0.12042,-0.2841 -0.12134,-0.283698 -0.12229,-0.283322 -0.12316,-0.282898 -0.12413,-0.282505 -0.12504,-0.282082 -0.12598,-0.281674 -0.12687,-0.281288 -0.12781,-0.280835 -0.12875,-0.280434 -0.12962,-0.28001 -0.13057,-0.27958 -0.13146,-0.279155 -0.13236,-0.278725 -0.13331,-0.278278 -0.1342,-0.277847 -0.13512,-0.277423 -0.13604,-0.276954 -0.13692,-0.276522 -0.13782,-0.276076 -0.13873,-0.275598 -0.13962,-0.275175 -0.14056,-0.274705 -0.14144,-0.274244 -0.14233,-0.273773 -0.14322,-0.273304 -0.14412,-0.272849 -0.14501,-0.272349 -0.1459,-0.27191 -0.14678,-0.27141 -0.14769,-0.270909 -0.14855,-0.270463 -0.14946,-0.269946 -0.15032,-0.269469 -0.15121,-0.268961 -0.15209,-0.268484 -0.15298,-0.267991 -0.15383,-0.267459 -10.61549,6.128845 0.17711,13.507348 -15.42247,3.46032 -5.62357,-2.197063 -2.49553,1.438206 m -2.35499,-4.078977 2.49329,-1.442118 0.90905,-5.968678 10.70796,-11.626084 11.60915,6.907046 m 10.6154,-6.129046 -0.15473,-0.266974 -0.15559,-0.266458 -0.15643,-0.265966 -0.15736,-0.265435 -0.15818,-0.26491 -0.15906,-0.264411 -0.15995,-0.263879 -0.16079,-0.263355 -0.16165,-0.262832 -0.16252,-0.2623 -0.16337,-0.26177 -0.16421,-0.26123 -0.16509,-0.260683 -0.16592,-0.260152 -0.1668,-0.259606 -0.16761,-0.259066 -0.16849,-0.258505 -0.16932,-0.257942 -0.17017,-0.257403 -0.17102,-0.256834 -0.17185,-0.256287 -0.17267,-0.255724 -0.17354,-0.25514 -0.17434,-0.254593 -0.1752,-0.254007 -0.17605,-0.253425 -0.17682,-0.252866 -0.17766,-0.252272 -0.17851,-0.251692 -0.17931,-0.251112 -0.18013,-0.250507 -0.18098,-0.249939 -0.18178,-0.249336 -0.18261,-0.248745 -0.18339,-0.24814 -0.18419,-0.247527 -0.18506,-0.246945 -0.1858,-0.246331 -0.18666,-0.245714 -0.18743,-0.245113 -0.18824,-0.244495 -0.18906,-0.243857 -0.18982,-0.243257 -0.19063,-0.242639 -0.19144,-0.242002 -0.1922,-0.241386 -0.19299,-0.240747 -0.19382,-0.24011 -0.19457,-0.239483 -0.19537,-0.238856 -0.19614,-0.238195 -0.19692,-0.237557 -0.19769,-0.236917 -0.19845,-0.236257 -0.19924,-0.235619 -0.20001,-0.234955 -0.20079,-0.234307 -0.20157,-0.233645 -0.20231,-0.232985 -0.20304,-0.232334 -0.20384,-0.231649 -0.2046,-0.230998 -0.20534,-0.230316 -0.20609,-0.229652 -0.20684,-0.228968 -0.20758,-0.228271 -0.20835,-0.227622 -0.2091,-0.226927 -0.2098,-0.22624 -0.21057,-0.225556 -0.21129,-0.224861 -0.21204,-0.224185 -0.21275,-0.223469 -0.2135,-0.222771 -0.21426,-0.222084 -0.21493,-0.221368 -0.21567,-0.22068 -0.21642,-0.219963 -0.21709,-0.219243 -0.21785,-0.218557 -28.669429,28.669442 0.1034,0.103675 0.10307,0.103972 0.10285,0.104247 0.10252,0.104533 0.1023,0.104808 0.10197,0.105072 0.10164,0.105369 0.10142,0.105633 0.10109,0.105908 0.10087,0.106194 0.10054,0.106458 0.10021,0.106733 0.09999,0.107008 0.09966,0.107294 0.09933,0.107558 0.09911,0.107822 0.09878,0.108086 0.09845,0.108383 0.09823,0.108625 0.0979,0.1089 0.09757,0.109164 0.09735,0.109417 0.09702,0.109703 0.09669,0.109956 0.09636,0.110225 0.09614,0.110472 0.09581,0.110749 0.09548,0.111011 0.09515,0.111273 0.09493,0.111519 0.0946,0.111773 0.09427,0.112043 0.09394,0.112297 0.09372,0.11255 0.09339,0.112813 0.09306,0.113052 0.09273,0.113313 0.0924,0.113567 0.09218,0.113821 0.09185,0.114061 0.09152,0.114329 0.09119,0.114576 0.09086,0.114807 0.09064,0.115061 0.0902,0.115308 0.08998,0.115538 0.08965,0.115801 0.08932,0.116046 0.08899,0.116278 0.08866,0.116532 0.08833,0.116786 0.088,0.117001 0.08778,0.11724 0.08745,0.117495 0.08712,0.117717 0.08679,0.117964 0.08646,0.118203 0.08613,0.118434 0.0858,0.118657 0.08547,0.118903 0.08514,0.119127 0.08481,0.119381 0.08448,0.119581 0.08415,0.119819 0.08382,0.120059 0.08349,0.120266 0.08316,0.12052 0.08283,0.120729 0.0825,0.120967 0.0822,0.121182 0.0818,0.121422 0.0815,0.121613 0.0812,0.121853 0.0808,0.122068 0.0805,0.122291 0.0802,0.12253 0.0799,0.122715 0.0795,0.122954 0.0792,0.123154 0.0789,0.123385 m -16.436306,-16.436297 0.123387,0.07888 0.123167,0.0792 0.122947,0.07955 0.122738,0.07988 0.122518,0.0802 0.122287,0.08055 0.122067,0.08088 0.121847,0.08121 0.121616,0.08154 0.121418,0.08186 0.121187,0.0822 0.120967,0.08254 0.120736,0.08284 0.120505,0.0832 0.120285,0.08351 0.120043,0.08386 0.119834,0.08416 0.119592,0.0845 0.119361,0.08482 0.11913,0.08515 0.11891,0.08548 0.118657,0.08579 0.118426,0.08614 0.118206,0.08643 0.117975,0.08678 0.117711,0.08708 0.11748,0.08741 0.11726,0.08771 0.116996,0.08805 0.116776,0.08836 0.116534,0.08869 0.11627,0.08899 0.11605,0.08931 0.115786,0.08964 0.115544,0.08995 0.115313,0.09027 0.115071,0.09056 0.114807,0.09087 0.114576,0.09121 0.114323,0.09151 0.114059,0.09183 0.113828,0.09216 0.113553,0.09242 0.113333,0.09276 0.113047,0.09305 0.112805,0.09337 0.112552,0.09368 0.11231,0.09398 0.112035,0.09427 0.111771,0.09461 0.111529,0.09489 0.111265,0.0952 0.111012,0.0955 0.110737,0.0958 0.110484,0.09611 0.11022,0.09642 0.11,0.09672 0.10967,0.097 0.10945,0.09729 0.10912,0.0976 0.1089,0.0979 0.10868,0.09819 0.10835,0.09849 0.10802,0.09878 0.10791,0.09909 0.10758,0.09937 0.10725,0.09967 0.10703,0.09995 0.1067,0.100254 0.10648,0.10054 0.10626,0.100826 0.10593,0.101112 0.1056,0.10142 0.10538,0.101684 0.10505,0.101992 0.10483,0.102256 0.1045,0.102553 0.10428,0.102839 0.10395,0.103136 0.10362,0.1034 m 28.669423,-28.669442 -0.21851,-0.217827 -0.21926,-0.217119 -0.21997,-0.216388 -0.22068,-0.215678 -0.22138,-0.21495 -0.22207,-0.214228 -0.22279,-0.213499 -0.22346,-0.212766 -0.22418,-0.212036 -0.22486,-0.211292 -0.22555,-0.21055 -0.22625,-0.209843 -0.22693,-0.209088 -0.2276,-0.208332 -0.2283,-0.207591 -0.22898,-0.206848 -0.22963,-0.206093 -0.23032,-0.205327 -0.23098,-0.204597 -0.23167,-0.20383 -0.2323,-0.203064 -0.23299,-0.20231 -0.23366,-0.201556 -0.2343,-0.200766 -0.23496,-0.200012 -0.23562,-0.199234 -0.23626,-0.198482 -0.23692,-0.19769 -0.23755,-0.196924 -0.2382,-0.196148 -0.23885,-0.195357 -0.23949,-0.19457 -0.2401,-0.193791 -0.24076,-0.193014 -0.24137,-0.192202 -0.24201,-0.191436 -0.24263,-0.190634 -0.24326,-0.189845 -0.24388,-0.189021 -0.24448,-0.188244 -0.24512,-0.187455 -0.24572,-0.186642 -0.24632,-0.185821 -0.24695,-0.185039 -0.24754,-0.184205 -0.24812,-0.183405 -0.24873,-0.182591 -0.24936,-0.181781 -0.24994,-0.180955 -0.2505,-0.180144 -0.25111,-0.179317 -0.2517,-0.178495 -0.25227,-0.177672 -0.25285,-0.176858 -0.25344,-0.176012 -0.25401,-0.175188 -0.25457,-0.174364 -0.25515,-0.173516 -0.25573,-0.17268 -0.25627,-0.171846 -0.25685,-0.171021 -0.25741,-0.170162 -0.25795,-0.169326 -0.25851,-0.168481 -0.25906,-0.167619 -0.25959,-0.166784 -0.26014,-0.165938 -0.2607,-0.165092 -0.26123,-0.16422 -0.26176,-0.163373 -0.26231,-0.162513 -0.26281,-0.161656 -0.26337,-0.160785 -0.26388,-0.159926 -0.2644,-0.159079 -0.26492,-0.158187 -0.26544,-0.157336 -0.26596,-0.156468 -0.26644,-0.155596 -0.267,-0.154704 -6.128829,10.615468 6.907029,11.609159 -11.626073,10.707969 -5.968699,0.909039 -1.442122,2.493298 m -4.078943,-2.354975 1.438206,-2.495563 -2.197085,-5.623551 3.460314,-15.422466 13.507373,0.17709 m 6.128829,-10.615468 -0.26747,-0.153846 -0.26798,-0.152974 -0.26847,-0.152093 -0.26897,-0.151208 -0.26948,-0.150329 -0.26995,-0.149446 -0.27045,-0.148575 -0.27093,-0.147671 -0.27142,-0.146789 -0.27188,-0.145895 -0.272365,-0.145 L 99.563651,14.581433 99.290334,14.43822 99.016566,14.295887 98.742325,14.154449 98.467622,14.013917 98.192457,13.874277 97.916841,13.735531 97.640785,13.597714 97.364267,13.46079 97.087287,13.32476 96.8099,13.189647 96.53204,13.055439 96.25374,12.922148 95.975033,12.789775 95.695864,12.658293 95.416299,12.527741 95.136283,12.398095 94.85586,12.269365 94.574997,12.141564 94.293738,12.01469 94.01205,11.888711 93.729955,11.763671 93.447464,11.639547 93.164566,11.516353 92.88125,11.394089 92.59756,11.272763 92.313452,11.152355 92.02897,11.032874 91.74407,10.914322 91.455905,10.796743 91.170257,10.68006 90.884213,10.564315 90.597817,10.449512 90.311047,10.335638 90.023881,10.222714 89.736352,10.110721 89.44846,9.9996656 89.160216,9.8895622 88.871609,9.7803872 88.582628,9.6721802 88.293339,9.5649082 88.003665,9.4585932 87.71365,9.3532022 87.423294,9.2487792 87.132597,9.1453022 86.84157,9.0427932 l -0.291357,-0.101585 -0.291709,-0.100617 -0.292028,-0.099649 -0.292347,-0.098703 -0.292677,-0.097757 -0.292996,-0.0968 -0.293282,-0.095799 -0.293623,-0.094886 -0.293942,-0.093929 -0.294228,-0.092939 -0.294536,-0.091993 -0.294833,-0.091014 -0.295119,-0.090057 -0.295438,-0.089089 -0.295713,-0.088121 -0.295999,-0.087142 -0.296263,-0.086174 -0.296571,-0.085217 -0.296835,-0.08426 -0.297121,-0.08327 -0.297385,-0.08228 -0.297649,-0.081345 -0.297924,-0.080333 -10.493747,39.1631948 0.141394,0.03804 0.141284,0.0385 0.141185,0.03889 0.141086,0.03927 0.140976,0.03966 0.140855,0.04004 0.140745,0.04042 0.140646,0.04081 0.140525,0.0412 0.140426,0.0415 0.140294,0.04189 0.140184,0.04235 0.140074,0.04274 0.139953,0.04304 0.139843,0.04343 0.139722,0.04389 0.139601,0.0442 0.139469,0.04458 0.139359,0.04497 0.139227,0.04535 0.139117,0.04574 0.138985,0.04612 0.138853,0.04651 0.138721,0.04689 0.138611,0.04728 0.138468,0.04766 0.138347,0.04797 0.138215,0.04836 0.138083,0.04874 0.137929,0.04913 0.137808,0.04951 0.137687,0.0499 0.137544,0.05028 0.13739,0.05059 0.137269,0.05097 0.137115,0.05136 0.136983,0.05174 0.136851,0.05213 0.136697,0.05251 0.136543,0.0529 0.136422,0.05321 0.136268,0.05359 0.136114,0.05398 0.135971,0.05436 0.135828,0.05475 0.135663,0.05506 0.135531,0.05552 0.135366,0.05583 0.135223,0.05621 0.135058,0.05659 0.134926,0.05698 0.134728,0.05729 0.134607,0.05767 0.134431,0.05806 0.134299,0.05844 0.134112,0.05875 0.133958,0.05914 0.133804,0.05952 0.133628,0.05983 0.133485,0.06021 0.133309,0.0606 0.133144,0.06098 0.132968,0.06137 0.132825,0.06168 0.132627,0.06206 0.132473,0.06237 0.132286,0.06276 0.132143,0.06314 0.131956,0.06353 0.131769,0.06383 0.131615,0.06422 0.131428,0.06453 0.131252,0.06491 0.131076,0.0653 0.130922,0.0656 0.130713,0.06599 0.130548,0.06637 0.130361,0.06668 0.130163,0.06707 0.129998,0.06745 m -22.452378,-6.01611 0.146292,0.0069 0.146254,0.0069 0.146254,0.0077 0.146223,0.0078 0.146208,0.0081 0.146169,0.0086 0.146161,0.009 0.146131,0.0093 0.146107,0.0098 0.146077,0.01023 0.146054,0.01056 0.146022,0.01101 0.145992,0.0114 0.145954,0.01178 0.145923,0.01224 0.145899,0.01255 0.145861,0.01301 0.145815,0.0134 0.145784,0.01378 0.145746,0.01417 0.145707,0.01455 0.145676,0.01494 0.145623,0.0154 0.145591,0.01571 0.145538,0.01617 0.145484,0.01655 0.145453,0.01694 0.145407,0.01732 0.145345,0.01771 0.145306,0.01817 0.145269,0.01856 0.145199,0.01894 0.145152,0.01933 0.145091,0.01971 0.145053,0.0201 0.144991,0.02056 0.144945,0.02094 0.144868,0.02125 0.144829,0.02171 0.144744,0.0221 0.144699,0.02248 0.144629,0.02287 0.144583,0.02325 0.144521,0.02364 0.144429,0.02402 0.144375,0.02449 0.144313,0.02487 0.144237,0.02526 0.144175,0.02564 0.144105,0.02603 0.144036,0.02641 0.143952,0.0268 0.14389,0.02718 0.143805,0.02757 0.143736,0.02795 0.143651,0.02841 0.143582,0.0288 0.143513,0.02918 0.14342,0.02957 0.143335,0.02995 0.143266,0.03034 0.143167,0.03072 0.143089,0.03111 0.143004,0.03149 0.14292,0.03188 0.142835,0.03226 0.142735,0.03265 0.142658,0.03303 0.142565,0.03342 0.142465,0.03388 0.142373,0.03419 0.142296,0.03465 0.142175,0.03504 0.142098,0.03534 0.141999,0.0358 0.1419,0.03619 0.141801,0.03657 0.141691,0.03696 0.141614,0.03734 0.141482,0.03773 m 10.493747,-39.1631938 -0.298166,-0.079376 -0.298452,-0.078397 -0.298694,-0.077418 -0.298936,-0.07645 -0.299189,-0.07546 -0.299442,-0.074503 -0.299684,-0.073513 -0.299915,-0.072512 -0.300157,-0.071544 -0.300388,-0.070565 -0.300608,-0.069575 -0.30085,-0.068596 -0.30107,-0.067606 -0.301279,-0.066616 -0.30151,-0.065637 -0.301708,-0.064658 -0.30195,-0.063657 -0.302126,-0.062667 -0.302335,-0.061688 -0.302533,-0.060698 -0.302731,-0.059697 -0.30294,-0.058707 -0.303105,-0.057728 -0.303303,-0.056716 -0.30349,-0.055737 -0.303677,-0.054747 -0.303853,-0.053746 -0.304018,-0.052756 -0.304194,-0.051755 -0.304348,-0.050754 -0.304524,-0.049775 -0.304678,-0.048763 -0.304854,-0.047773 -0.304986,-0.046783 -0.305151,-0.045782 -0.305283,-0.044781 -0.305459,-0.043769 -0.305591,-0.042779 -0.305712,-0.041778 -0.305847,-0.040799 -0.306006,-0.039765 -0.306121,-0.038775 -0.306236,-0.037774 -0.306368,-0.036762 -0.306483,-0.035761 -0.306583,-0.034771 -0.306722,-0.033759 -0.306822,-0.032747 -0.306922,-0.031757 -0.307022,-0.030734 -0.30713,-0.029755 -0.30723,-0.02871 -0.307307,-0.027753 -0.307407,-0.026719 -0.307492,-0.025718 -0.307576,-0.024728 -0.307646,-0.023705 -0.307731,-0.022715 -0.307792,-0.021692 -0.307861,-0.020702 -0.307946,-0.019657 -0.308,-0.018678 -0.308062,-0.017666 -0.308108,-0.016654 -0.308169,-0.015642 -0.308208,-0.014641 -0.308262,-0.01364 -0.308316,-0.012606 -0.308338,-0.011616 -0.308385,-0.01056 -0.308408,-0.00957 -0.308447,-0.00858 -0.30847,-0.00759 -0.308493,-0.0066 -0.308515,-0.0055 -0.308524,-0.00451 -0.308547,-0.00352 -0.308554,-0.00253 -0.308562,-0.00154 -0.308555,-5.709e-4 V 15.995007 l 11.786252,6.600281 -4.714502,15.086412 -4.714502,3.77161 -0.0023,2.88031 M 112.23311,98.027287 V 95.67002 m 25.4583,2.357267 h -25.4584 m -7.57948,-28.28702 22.04752,-12.729154 m -20.86891,14.770614 -1.17861,-2.04146 -1.17863,-2.041431 M 83.946007,49.032742 96.675163,26.985192 M 85.987431,50.211358 83.946007,49.032742 81.904572,47.854119 M 55.6588,41.452637 V 15.994333 m 2.357247,25.458304 H 55.6588 m 53.74531,56.574023 v -0.02937 l -3e-5,-0.02937 -5e-5,-0.02937 -4e-5,-0.02937 -9e-5,-0.02937 -9e-5,-0.02937 -10e-5,-0.02937 -1.3e-4,-0.02937 -1.3e-4,-0.02937 -1.6e-4,-0.02937 -1.5e-4,-0.02937 -1.9e-4,-0.02937 -1.8e-4,-0.02937 -2e-4,-0.02937 -1.9e-4,-0.02937 -1.9e-4,-0.02937 -1.9e-4,-0.02937 -3.9e-4,-0.02937 -3.7e-4,-0.02937 -3.8e-4,-0.02937 -3.7e-4,-0.02937 -3.9e-4,-0.02937 -3.8e-4,-0.02937 -3.9e-4,-0.02937 -3.7e-4,-0.02937 -3.7e-4,-0.02937 -3.9e-4,-0.02937 -3.8e-4,-0.02937 -3.9e-4,-0.02937 -3.7e-4,-0.02937 -5.4e-4,-0.02937 -5.4e-4,-0.02937 -5.4e-4,-0.02937 -5.4e-4,-0.02937 -5.4e-4,-0.02937 -5.4e-4,-0.02937 -5.4e-4,-0.02937 -5.3e-4,-0.02937 -5.4e-4,-0.02937 -5.4e-4,-0.02937 -5.4e-4,-0.02937 -5.4e-4,-0.02937 -5.4e-4,-0.02937 -5.4e-4,-0.02937 -5.4e-4,-0.02937 -5.4e-4,-0.02937 -5.4e-4,-0.02937 -5.3e-4,-0.02937 -5.4e-4,-0.02937 -5.4e-4,-0.02937 -5.4e-4,-0.02937 -5.4e-4,-0.02937 -5.4e-4,-0.02937 -7.7e-4,-0.02937 -7.7e-4,-0.02937 -7.7e-4,-0.02937 -7.7e-4,-0.02937 -7.7e-4,-0.02937 -7.7e-4,-0.02937 -7.7e-4,-0.02937 -7.7e-4,-0.02937 -7.7e-4,-0.02937 -7.7e-4,-0.02937 -7.7e-4,-0.02937 -7.7e-4,-0.02937 -7.7e-4,-0.02937 -7.7e-4,-0.02937 -7.7e-4,-0.02937 -7.7e-4,-0.02937 -7.7e-4,-0.02937 -7.7e-4,-0.02937 -7.7e-4,-0.02937 -7.7e-4,-0.02937 -7.7e-4,-0.02937 -7.7e-4,-0.02937 -7.7e-4,-0.02937 -7.7e-4,-0.02937 -7.7e-4,-0.02937 -7.7e-4,-0.02937 -7.7e-4,-0.02937 m 2.88031,2.35499 h -2.8287 m -7.2005,-26.872671 2.44972,-1.414352 m -1.31693,3.479658 -0.0135,-0.02607 -0.0136,-0.02618 -0.0136,-0.02607 -0.0136,-0.02607 -0.0136,-0.02607 -0.0138,-0.02607 -0.0138,-0.02607 -0.0138,-0.02607 -0.0137,-0.02607 -0.0138,-0.02607 -0.0138,-0.02607 -0.0138,-0.02607 -0.0138,-0.02607 -0.0138,-0.02607 -0.0138,-0.02607 -0.0139,-0.02607 -0.0139,-0.02596 -0.0139,-0.02596 -0.0139,-0.02596 -0.0139,-0.02596 -0.014,-0.02596 -0.014,-0.02596 -0.014,-0.02596 -0.014,-0.02596 -0.014,-0.02596 -0.014,-0.02596 -0.014,-0.02596 -0.014,-0.02596 -0.014,-0.02596 -0.014,-0.02596 -0.014,-0.02585 -0.0141,-0.02585 -0.014,-0.02585 -0.0141,-0.02585 -0.0141,-0.02585 -0.0141,-0.02585 -0.0141,-0.02585 -0.0141,-0.02574 -0.0141,-0.02574 -0.0141,-0.02574 -0.0142,-0.02585 -0.0142,-0.02574 -0.0142,-0.02574 -0.0142,-0.02574 -0.0143,-0.02574 -0.0142,-0.02585 -0.0143,-0.02574 -0.0143,-0.02574 -0.0143,-0.02574 -0.0143,-0.02585 -0.0143,-0.02574 -0.0143,-0.02574 -0.0143,-0.02574 -0.0143,-0.02574 -0.0144,-0.02574 -0.0144,-0.02574 -0.0144,-0.02574 -0.0144,-0.02574 -0.0144,-0.02563 -0.0145,-0.02563 -0.0145,-0.02563 -0.0145,-0.02563 -0.0145,-0.02563 -0.0145,-0.02552 -0.0145,-0.02563 -0.0145,-0.02563 -0.0145,-0.02564 -0.0145,-0.02556 -0.0145,-0.02564 -0.0146,-0.02564 -0.0146,-0.02556 -0.0146,-0.02556 -0.0146,-0.02556 -0.0146,-0.02556 -0.0146,-0.02556 -0.0146,-0.02549 -0.0146,-0.02556 -0.0146,-0.02556 -0.0147,-0.02549 -0.0147,-0.02549 -0.0147,-0.02549 -0.0147,-0.02549 -0.0147,-0.02549 -0.0147,-0.02549 -0.0147,-0.02549 -0.0147,-0.02541 -0.0147,-0.02541 -0.0147,-0.02541 -0.0147,-0.02541 -0.0148,-0.02541 -0.0149,-0.02541 -0.0148,-0.02541 -0.0148,-0.02541 -0.015,-0.02541 -0.015,-0.02541 -0.015,-0.02541 -0.0151,-0.02533 -0.015,-0.02533 -0.0151,-0.02533 -0.015,-0.02533 -0.0151,-0.02533 -0.0151,-0.02533 -0.015,-0.02533 -0.0151,-0.02526 -0.015,-0.02533 -0.0151,-0.02526 -0.0151,-0.02526 -0.0152,-0.02526 -0.0152,-0.02526 -0.0152,-0.02526 -0.0152,-0.02526 -0.0152,-0.02526 -0.0152,-0.02526 -0.0152,-0.02526 -0.0152,-0.02526 -0.0152,-0.02526 -0.0153,-0.02518 -0.0153,-0.02526 -0.0153,-0.02518 -0.0153,-0.02518 -0.0153,-0.02518 -0.0153,-0.02518 -0.0153,-0.0251 -0.0153,-0.02518 -0.0153,-0.0251 -0.0153,-0.0251 -0.0153,-0.0251 -0.0154,-0.0251 -0.0153,-0.0251 -0.0154,-0.0251 -0.0154,-0.02502 -0.0154,-0.0251 -0.0154,-0.02502 -0.0155,-0.0251 -0.0155,-0.02503 -0.0155,-0.0251 -0.0155,-0.02502 -0.0155,-0.02502 -0.0155,-0.02502 -0.0155,-0.02502 -0.0155,-0.02502 -0.0155,-0.02503 -0.0155,-0.02495 -0.0156,-0.02502 -0.0156,-0.02495 -0.0156,-0.02495 -0.0156,-0.02495 -0.0156,-0.02495 -0.0157,-0.02495 -0.0157,-0.02495 -0.0157,-0.02487 -0.0157,-0.02487 -0.0157,-0.02487 -0.0157,-0.02487 -0.0157,-0.02487 -0.0157,-0.02487 -0.0158,-0.02487 -0.0158,-0.02487 -0.0158,-0.02487 -0.0157,-0.02487 M 82.542922,51.487255 83.95728,49.03753 m 0.599313,3.671915 -0.02486,-0.01579 -0.02486,-0.01579 -0.02486,-0.01579 -0.02486,-0.01579 -0.02486,-0.01579 -0.02486,-0.01571 -0.02486,-0.01571 -0.02486,-0.01571 -0.02486,-0.01571 -0.02486,-0.01571 -0.02486,-0.01571 -0.02497,-0.01571 -0.02497,-0.01563 -0.02497,-0.01563 -0.02497,-0.01563 -0.02497,-0.01563 -0.02497,-0.01563 -0.02508,-0.01563 -0.02497,-0.01555 -0.02508,-0.01555 -0.02497,-0.01555 -0.02508,-0.01555 -0.02508,-0.01548 -0.02508,-0.01548 -0.02508,-0.01548 -0.02508,-0.01548 -0.02508,-0.01548 -0.02508,-0.0154 -0.02508,-0.01548 -0.02497,-0.0154 -0.02508,-0.0154 -0.02508,-0.0154 -0.02508,-0.0154 -0.02508,-0.0154 -0.02508,-0.01532 -0.02508,-0.01532 -0.02519,-0.01532 -0.02519,-0.01532 -0.02519,-0.01532 -0.02519,-0.01525 -0.02519,-0.01525 -0.02519,-0.01525 -0.0253,-0.01525 -0.0253,-0.01525 -0.0253,-0.01525 -0.0253,-0.01517 -0.0253,-0.01517 -0.0253,-0.01517 -0.0253,-0.01517 -0.0253,-0.01517 -0.0253,-0.01509 -0.0253,-0.01509 -0.0253,-0.01509 -0.0253,-0.01509 -0.0253,-0.01509 -0.0253,-0.01509 -0.0253,-0.01509 -0.0253,-0.01502 -0.0253,-0.01501 -0.0253,-0.01501 -0.0253,-0.01501 -0.02541,-0.01494 -0.0253,-0.01494 -0.02541,-0.01494 -0.02541,-0.01494 -0.02541,-0.01494 -0.02541,-0.01494 -0.02541,-0.01494 -0.02541,-0.01486 -0.02541,-0.01486 -0.02541,-0.01486 -0.02541,-0.01486 -0.02541,-0.01478 -0.02541,-0.01478 -0.02541,-0.01478 -0.02541,-0.01478 -0.02552,-0.01478 -0.02552,-0.01478 -0.02552,-0.01478 -0.02552,-0.01471 -0.02552,-0.01471 -0.02552,-0.01471 -0.02552,-0.01471 -0.02552,-0.01463 -0.02552,-0.01463 -0.02552,-0.01463 -0.02552,-0.01463 -0.02552,-0.01463 -0.02552,-0.01463 -0.02552,-0.01455 -0.02563,-0.01455 -0.02563,-0.01455 -0.02552,-0.01455 -0.02563,-0.01455 -0.02563,-0.01455 -0.02552,-0.01448 -0.02563,-0.01448 -0.02563,-0.01448 -0.02563,-0.01448 -0.02563,-0.01448 -0.02563,-0.0144 -0.02563,-0.0144 -0.02574,-0.0144 -0.02574,-0.0144 -0.02574,-0.0144 -0.02574,-0.0144 -0.02574,-0.01432 -0.02574,-0.01432 -0.02574,-0.01432 -0.02574,-0.01432 -0.02574,-0.01425 -0.02574,-0.01432 -0.02574,-0.01424 -0.02585,-0.01425 -0.02574,-0.01425 -0.02574,-0.01424 -0.02574,-0.01425 -0.02574,-0.01417 -0.02585,-0.01417 -0.02574,-0.01417 -0.02574,-0.01417 -0.02574,-0.01417 -0.02585,-0.01409 -0.02574,-0.01409 -0.02585,-0.01409 -0.02585,-0.01409 -0.02585,-0.01409 -0.02585,-0.01409 -0.02585,-0.01401 -0.02585,-0.01401 -0.02585,-0.01401 -0.02596,-0.01401 -0.02596,-0.01401 -0.02596,-0.01394 -0.02596,-0.01394 -0.02596,-0.01394 -0.02596,-0.01394 -0.02596,-0.01394 -0.02596,-0.01394 -0.02596,-0.01386 -0.02596,-0.01386 -0.02596,-0.01386 -0.02596,-0.01386 -0.02596,-0.01386 -0.02596,-0.01378 -0.02607,-0.01378 -0.02607,-0.01378 -0.02607,-0.01378 -0.02607,-0.01378 -0.02607,-0.01378 -0.02607,-0.01371 -0.02607,-0.01371 -0.02607,-0.01371 -0.02607,-0.01371 -0.02607,-0.01363 -0.02607,-0.01363 -0.02607,-0.01363 -0.02607,-0.01363 -0.02618,-0.01363 -0.02618,-0.01363 m -24.810214,-6.06826 v -2.828694 m 2.354991,2.880307 -0.02941,-0.0015 -0.02941,-0.0015 -0.02941,-0.0015 -0.02941,-0.0015 -0.02941,-7.7e-4 -0.02941,-7.7e-4 -0.02941,-7.7e-4 -0.02941,-7.7e-4 -0.02941,-7.7e-4 -0.02941,-7.7e-4 -0.02941,-7.7e-4 -0.02941,-7.7e-4 -0.02941,-7.7e-4 -0.02941,-7.7e-4 -0.02941,-7.7e-4 -0.02941,-7.7e-4 -0.02941,-7.7e-4 -0.02941,-7.7e-4 -0.02941,-7.7e-4 -0.02941,-7.7e-4 -0.02941,-7.7e-4 -0.02941,-7.7e-4 -0.02941,-7.7e-4 -0.02941,-7.7e-4 -0.02941,-7.7e-4 -0.02941,-7.7e-4 -0.02941,-7.7e-4 -0.02941,-7.7e-4 -0.02941,-7.55e-4 -0.02941,-7.54e-4 -0.02941,-7.55e-4 -0.02941,-7.54e-4 -0.02941,-7.55e-4 -0.02941,-7.55e-4 -0.02941,-7.54e-4 -0.02941,-7.55e-4 -0.02941,-7.54e-4 -0.02941,-7.55e-4 -0.02941,-7.55e-4 -0.02941,-5.93e-4 -0.02941,-5.92e-4 -0.02941,-5.93e-4 -0.02941,-5.93e-4 -0.02941,-5.93e-4 -0.02941,-5.93e-4 -0.02941,-5.93e-4 -0.02941,-5.93e-4 -0.02941,-5.93e-4 -0.02941,-5.93e-4 -0.02941,-5.93e-4 -0.02941,-3.77e-4 -0.02941,-3.85e-4 -0.02941,-3.77e-4 -0.02941,-3.85e-4 -0.02941,-3.77e-4 -0.02941,-3.78e-4 -0.02949,-3.85e-4 -0.02941,-3.77e-4 -0.02941,-3.85e-4 -0.02941,-3.77e-4 -0.02941,-3.78e-4 -0.02941,-3.85e-4 -0.02941,-1.84e-4 -0.02941,-1.93e-4 -0.02941,-1.92e-4 -0.02949,-1.85e-4 -0.02941,-1.93e-4 -0.02941,-1.92e-4 -0.02941,-1.85e-4 -0.02949,-1.62e-4 -0.02941,-1.61e-4 -0.02941,-1.31e-4 -0.02941,-1.24e-4 -0.02941,-9.2e-5 -0.02941,-1.08e-4 -0.02941,-6.9e-5 -0.02941,-4.6e-5 -0.02949,-6.2e-5 -0.02941,-2.3e-5 h -0.02941 m 51.914,39.835011 -0.45539,0.122023 0.0448,0.168465 0.0442,0.168619 0.0438,0.168762 0.0432,0.168905 0.0427,0.169037 0.0421,0.169191 0.0415,0.169323 0.041,0.169455 0.0404,0.169576 0.0399,0.169719 0.0393,0.169851 0.0387,0.169972 0.0382,0.170115 0.0376,0.170214 0.0371,0.170357 0.0365,0.170467 0.036,0.170588 0.0354,0.170698 0.0349,0.170819 0.0342,0.17094 0.0338,0.171039 0.0331,0.171149 0.0326,0.171259 0.0321,0.171369 0.0315,0.171479 0.0309,0.171578 0.0304,0.171666 0.0298,0.171765 0.0293,0.171864 0.0286,0.171974 0.0282,0.172051 0.0276,0.17215 0.0269,0.172238 0.0264,0.172315 0.0259,0.172414 0.0253,0.172491 0.0247,0.172579 0.0242,0.172656 0.0236,0.172733 0.0231,0.172799 0.0224,0.172887 0.0219,0.172964 0.0213,0.17303 0.0207,0.173096 0.0202,0.173162 0.0197,0.173228 0.0191,0.173283 0.0186,0.17336 0.0178,0.173415 0.0173,0.17347 0.0168,0.173525 0.0163,0.17358 0.0157,0.173635 0.0151,0.173679 0.0145,0.173734 0.014,0.173778 0.0134,0.173811 0.0129,0.173877 0.0123,0.17391 0.0117,0.173943 0.0112,0.173987 0.011,0.174009 0.01,0.174064 0.01,0.174075 0.009,0.174119 0.008,0.174141 0.008,0.174163 0.007,0.174196 0.007,0.174207 0.007,0.17424 0.005,0.174262 0.004,0.174262 0.004,0.174295 0.004,0.174284 0.003,0.174317 0.003,0.174317 0.002,0.174328 0.001,0.174339 7.7e-4,0.174339 3.8e-4,0.174328 h 0.47143 m -7.2005,-26.87266 -0.4083,0.235735 0.0869,0.151114 0.0865,0.151404 0.0859,0.15169 0.0855,0.151987 0.0849,0.15224 0.0845,0.152526 0.0839,0.15279 0.0834,0.153087 0.0829,0.153351 0.0824,0.153615 0.082,0.153879 0.0814,0.154165 0.081,0.154418 0.0804,0.154693 0.08,0.154935 0.0794,0.155199 0.0789,0.155474 0.0784,0.155738 0.0779,0.155969 0.0773,0.156233 0.0769,0.156486 0.0763,0.156728 0.0759,0.156981 0.0754,0.157234 0.0748,0.157487 0.0744,0.157718 0.0738,0.15796 0.0733,0.158213 0.0727,0.158433 0.0723,0.158686 0.0717,0.158917 0.0712,0.159148 0.0706,0.159379 0.0702,0.159621 0.0696,0.15983 0.0691,0.160072 0.0685,0.160292 0.068,0.160523 0.0675,0.160732 0.067,0.160952 0.0664,0.161183 0.0659,0.161392 0.0653,0.161612 0.0648,0.16181 0.0644,0.16203 0.0638,0.162239 0.0632,0.162459 0.0628,0.162657 0.0623,0.162866 0.0617,0.163053 0.0612,0.163273 0.0606,0.163471 0.0601,0.163647 0.0595,0.163856 0.059,0.164065 0.0585,0.16423 0.0579,0.164439 0.0574,0.164626 0.0569,0.164791 0.0563,0.165011 0.0559,0.165176 0.0552,0.165363 0.0547,0.165528 0.0541,0.165726 0.0536,0.165902 0.053,0.166067 0.0525,0.166232 0.0519,0.166408 0.0515,0.166584 0.0509,0.166749 0.0504,0.166914 0.0498,0.167079 0.0492,0.167233 0.0487,0.167398 0.0482,0.167563 0.0476,0.167717 0.0471,0.167871 0.0465,0.168025 0.0459,0.168168 0.0453,0.168333 m -13.454945,-24.2154 -0.333355,0.333371 0.123068,0.123485 0.122661,0.12387 0.122276,0.124286 0.121836,0.124678 0.121473,0.125079 0.121022,0.125479 0.120626,0.125864 0.120219,0.126257 0.119812,0.126665 0.119372,0.127035 0.118954,0.12745 0.118558,0.127836 0.118129,0.128212 0.117711,0.12859 0.117293,0.128991 0.116875,0.129367 0.116446,0.129753 0.116017,0.130122 0.115577,0.1305 0.11517,0.130908 0.11473,0.131262 0.114312,0.131623 0.113872,0.132017 0.113454,0.132386 0.112992,0.132748 0.112585,0.133118 0.112123,0.133494 0.111705,0.13385 0.111243,0.134226 0.110847,0.134588 0.110363,0.134935 0.10989,0.135304 0.10945,0.135682 0.10901,0.136028 0.10857,0.136367 0.10813,0.136737 0.10769,0.137083 0.10725,0.137437 0.10681,0.137792 0.10637,0.138146 0.10593,0.138476 0.10549,0.138831 0.10505,0.139186 0.1045,0.139508 0.10406,0.139863 0.10362,0.140194 0.10318,0.140548 0.10274,0.140864 0.10219,0.14121 0.10175,0.141541 0.10131,0.141881 0.10087,0.142211 0.10043,0.142535 0.09988,0.142865 0.09944,0.14319 0.099,0.143512 0.09845,0.143844 0.09801,0.144152 0.09757,0.14449 0.09713,0.144799 0.09669,0.145114 0.0961,0.145422 0.0957,0.145738 0.0952,0.146069 0.0947,0.146362 0.0943,0.146685 0.0937,0.146969 0.0933,0.147301 0.0928,0.147602 0.0923,0.147894 0.0919,0.148202 0.0913,0.148494 0.0909,0.148795 0.0903,0.149087 0.0899,0.149388 0.0894,0.149688 0.0889,0.149965 0.0884,0.150266 0.0879,0.150558 0.0875,0.150835 m -19.263854,-19.907888 -0.235708,0.4083 0.150832,0.08742 0.150546,0.08791 0.150271,0.08841 0.149974,0.08888 0.149677,0.08939 0.149391,0.08987 0.149105,0.09036 0.148775,0.09085 0.1485,0.09133 0.148214,0.09182 0.147895,0.09231 0.147587,0.09278 0.147279,0.09326 0.147004,0.09376 0.146663,0.09423 0.146366,0.0947 0.146069,0.0952 0.145739,0.09567 0.14542,0.09615 0.145123,0.09661 0.144815,0.09711 0.144474,0.09757 0.144133,0.09803 0.143869,0.09852 0.143506,0.09898 0.143176,0.09946 0.142879,0.09991 0.142527,0.100375 0.142219,0.100859 0.141878,0.10131 0.141537,0.101783 0.141196,0.102245 0.140877,0.102696 0.140547,0.103169 0.140195,0.103631 0.139865,0.104071 0.139513,0.104544 0.139172,0.104995 0.138842,0.105446 0.138479,0.105908 0.138127,0.106348 0.137808,0.106821 0.137423,0.10725 0.137093,0.107712 0.136741,0.108152 0.136378,0.108603 0.136037,0.109043 0.135663,0.109505 0.1353,0.109923 0.134937,0.110372 0.134596,0.110818 0.1342,0.111281 0.13387,0.111688 0.133496,0.112128 0.133111,0.112574 0.132748,0.113005 0.132407,0.113452 0.131989,0.113867 0.131648,0.114307 0.131252,0.114738 0.1309,0.115153 0.130504,0.115592 0.130119,0.116009 0.129756,0.116454 0.129371,0.116863 0.128986,0.117294 0.128601,0.117718 0.128216,0.118126 0.127809,0.118549 0.127435,0.118965 0.127072,0.119404 0.126643,0.119789 0.126258,0.120204 0.125873,0.120629 0.125477,0.121044 0.12507,0.121444 0.124685,0.12186 0.124289,0.122269 0.123871,0.122661 0.123486,0.123069 m -23.76,-14.243676 -0.122034,0.455386 0.168333,0.04535 0.168179,0.04597 0.168014,0.04651 0.167882,0.04705 0.167706,0.04759 0.167563,0.04812 0.167398,0.04866 0.167233,0.04928 0.16709,0.04982 0.166903,0.05036 0.16676,0.0509 0.166584,0.05144 0.166397,0.05197 0.166232,0.05251 0.166067,0.05305 0.165913,0.05359 0.165704,0.05413 0.16555,0.05467 0.165363,0.05521 0.165165,0.05575 0.164989,0.05629 0.164813,0.05683 0.164626,0.05736 0.164428,0.0579 0.164252,0.05844 0.164032,0.05898 0.163867,0.05952 0.163669,0.06006 0.16346,0.0606 0.163273,0.06114 0.163053,0.06168 0.162866,0.06222 0.162646,0.06276 0.162459,0.06329 0.162239,0.06376 0.162041,0.06437 0.16181,0.06491 0.161612,0.06537 0.161392,0.06591 0.161183,0.06645 0.160952,0.06699 0.160743,0.06753 0.160512,0.06807 0.160303,0.06853 0.16005,0.06907 0.159852,0.06961 0.159621,0.07015 0.159368,0.07069 0.159159,0.07115 0.158895,0.07169 0.158697,0.07223 0.158444,0.07276 0.158213,0.07323 0.157949,0.07377 0.157718,0.0743 0.157487,0.07477 0.157234,0.07531 0.156981,0.07584 0.156739,0.07631 0.156497,0.07685 0.156211,0.07736 0.155991,0.07788 0.155716,0.07838 0.155474,0.0789 0.155188,0.0794 0.154968,0.0799 0.154671,0.08042 0.154429,0.08092 0.154143,0.08142 0.15389,0.08194 0.153615,0.08243 0.153351,0.08294 0.153076,0.08344 0.152801,0.08394 0.152537,0.08444 0.15224,0.08493 0.151965,0.08545 0.151701,0.08592 0.151404,0.08644 0.151129,0.08693 M 55.668641,44.288156 v 0.471448 l 0.174328,3.77e-4 0.174343,7.7e-4 0.174328,0.0015 0.174336,0.0023 0.174305,0.0023 0.17432,0.0031 0.174305,0.0038 0.174282,0.0046 0.174274,0.0046 0.174251,0.0054 0.174228,0.0062 0.174228,0.0069 0.174174,0.0069 0.174181,0.0077 0.174136,0.0082 0.174112,0.0088 0.174082,0.0093 0.174058,0.01001 0.174028,0.01056 0.173974,0.01109 0.173951,0.0117 0.173896,0.01224 0.173874,0.01286 0.17382,0.0134 0.173773,0.01394 0.173736,0.01455 0.173681,0.01509 0.173642,0.01571 0.173574,0.01625 0.173527,0.01679 0.173473,0.0174 0.173404,0.01794 0.173358,0.01856 0.173296,0.0191 0.173227,0.01963 0.173158,0.02017 0.173111,0.02079 0.173019,0.02133 0.172958,0.02194 0.172872,0.02248 0.172819,0.02302 0.172727,0.02356 0.172664,0.02418 0.172565,0.02472 0.172503,0.02533 0.172403,0.02587 0.172334,0.02641 0.172226,0.02695 0.172149,0.02757 0.172056,0.0281 0.171964,0.02872 0.171872,0.02926 0.171764,0.0298 0.171671,0.03034 0.171579,0.03095 0.171472,0.03149 0.171363,0.03203 0.171264,0.03265 0.171148,0.03319 0.171047,0.03373 0.170933,0.03426 0.170816,0.03488 0.170709,0.03542 0.170586,0.03596 0.170471,0.0365 0.170347,0.03711 0.170231,0.03765 0.170093,0.03819 0.169985,0.03873 0.169839,0.03935 0.169716,0.03989 0.169585,0.04042 0.169472,0.04096 0.169312,0.0415 0.169169,0.04212 0.16907,0.04266 0.168894,0.0432 0.168751,0.04374 0.168619,0.04427 0.168465,0.04481 m 39.957023,51.45862 h 40.5447 M 55.659193,44.281511 V 3.7367914"
           style="fill:none;stroke:#0000ff;stroke-width:0.25;stroke-linecap:butt;stroke-linejoin:miter;stroke-miterlimit:10;stroke-dasharray:none;stroke-opacity:1"
           id="path825"
           inkscape:connector-curvature="0" />
        <path
           sodipodi:nodetypes="cc"
           inkscape:connector-curvature="0"
           id="path966"
           d="m 55.668641,44.759534 c 32.142245,-0.05714 53.523319,27.023722 53.275529,53.277637"
           style="fill:none;stroke:#ff0000;stroke-width:0.28251296;stroke-linecap:butt;stroke-linejoin:miter;stroke-miterlimit:4;stroke-dasharray:none;stroke-opacity:1" />
      </g>
    </g>
  </g>
</svg>
