<?xml version="1.0" encoding="UTF-8" standalone="no"?>
<!-- Created with Inkscape (http://www.inkscape.org/) -->

<svg
   xmlns:dc="http://purl.org/dc/elements/1.1/"
   xmlns:cc="http://creativecommons.org/ns#"
   xmlns:rdf="http://www.w3.org/1999/02/22-rdf-syntax-ns#"
   xmlns:svg="http://www.w3.org/2000/svg"
   xmlns="http://www.w3.org/2000/svg"
   xmlns:sodipodi="http://sodipodi.sourceforge.net/DTD/sodipodi-0.dtd"
   xmlns:inkscape="http://www.inkscape.org/namespaces/inkscape"
   width="180.62616mm"
   height="68.521751mm"
   viewBox="0 0 180.62616 68.521751"
   version="1.1"
   id="svg8"
   inkscape:version="0.92.4 (5da689c313, 2019-01-14)"
   sodipodi:docname="rotorBlech.svg"
   inkscape:export-filename="C:\Users\koenig\Desktop\PyDraft2.0\Doku\image_Doku\rotorBlech.png"
   inkscape:export-xdpi="96"
   inkscape:export-ydpi="96">
  <defs
     id="defs2">
    <marker
       inkscape:stockid="Arrow1Lend"
       orient="auto"
       refY="0"
       refX="0"
       id="marker7199"
       style="overflow:visible"
       inkscape:isstock="true">
      <path
         id="path7197"
         d="M 0,0 5,-5 -12.5,0 5,5 Z"
         style="fill:#000000;fill-opacity:1;fill-rule:evenodd;stroke:#000000;stroke-width:1.00000003pt;stroke-opacity:1"
         transform="matrix(-0.8,0,0,-0.8,-10,0)"
         inkscape:connector-curvature="0" />
    </marker>
    <marker
       inkscape:isstock="true"
       style="overflow:visible"
       id="marker6420"
       refX="0"
       refY="0"
       orient="auto"
       inkscape:stockid="Arrow1Lend">
      <path
         transform="matrix(-0.8,0,0,-0.8,-10,0)"
         style="fill:#000000;fill-opacity:1;fill-rule:evenodd;stroke:#000000;stroke-width:1.00000003pt;stroke-opacity:1"
         d="M 0,0 5,-5 -12.5,0 5,5 Z"
         id="path6418"
         inkscape:connector-curvature="0" />
    </marker>
    <marker
       inkscape:isstock="true"
       style="overflow:visible"
       id="marker5804"
       refX="0"
       refY="0"
       orient="auto"
       inkscape:stockid="Arrow1Lend">
      <path
         transform="matrix(-0.8,0,0,-0.8,-10,0)"
         style="fill:#000000;fill-opacity:1;fill-rule:evenodd;stroke:#000000;stroke-width:1.00000003pt;stroke-opacity:1"
         d="M 0,0 5,-5 -12.5,0 5,5 Z"
         id="path5802"
         inkscape:connector-curvature="0" />
    </marker>
    <inkscape:path-effect
       effect="bspline"
       id="path-effect5699"
       is_visible="true"
       weight="33.333333"
       steps="2"
       helper_size="0"
       apply_no_weight="true"
       apply_with_weight="true"
       only_selected="false" />
    <marker
       inkscape:isstock="true"
       style="overflow:visible"
       id="marker4115"
       refX="0"
       refY="0"
       orient="auto"
       inkscape:stockid="Arrow1Lend">
      <path
         transform="matrix(-0.8,0,0,-0.8,-10,0)"
         style="fill:#000000;fill-opacity:1;fill-rule:evenodd;stroke:#000000;stroke-width:1.00000003pt;stroke-opacity:1"
         d="M 0,0 5,-5 -12.5,0 5,5 Z"
         id="path4113"
         inkscape:connector-curvature="0" />
    </marker>
    <inkscape:path-effect
       effect="bspline"
       id="path-effect4081"
       is_visible="true"
       weight="33.333333"
       steps="2"
       helper_size="0"
       apply_no_weight="true"
       apply_with_weight="true"
       only_selected="false" />
    <inkscape:path-effect
       effect="bspline"
       id="path-effect4020"
       is_visible="true"
       weight="33.333333"
       steps="2"
       helper_size="0"
       apply_no_weight="true"
       apply_with_weight="true"
       only_selected="false" />
    <inkscape:path-effect
       effect="bspline"
       id="path-effect4012"
       is_visible="true"
       weight="33.333333"
       steps="2"
       helper_size="0"
       apply_no_weight="true"
       apply_with_weight="true"
       only_selected="false" />
    <inkscape:path-effect
       effect="bspline"
       id="path-effect4006"
       is_visible="true"
       weight="33.333333"
       steps="2"
       helper_size="0"
       apply_no_weight="true"
       apply_with_weight="true"
       only_selected="false" />
    <marker
       inkscape:isstock="true"
       style="overflow:visible"
       id="marker1878"
       refX="0"
       refY="0"
       orient="auto"
       inkscape:stockid="Arrow1Lstart">
      <path
         transform="matrix(0.8,0,0,0.8,10,0)"
         style="fill:#000000;fill-opacity:1;fill-rule:evenodd;stroke:#000000;stroke-width:1.00000003pt;stroke-opacity:1"
         d="M 0,0 5,-5 -12.5,0 5,5 Z"
         id="path1876"
         inkscape:connector-curvature="0" />
    </marker>
    <marker
       inkscape:stockid="Arrow2Lend"
       orient="auto"
       refY="0"
       refX="0"
       id="Arrow2Lend"
       style="overflow:visible"
       inkscape:isstock="true">
      <path
         id="path891"
         style="fill:#000000;fill-opacity:1;fill-rule:evenodd;stroke:#000000;stroke-width:0.625;stroke-linejoin:round;stroke-opacity:1"
         d="M 8.7185878,4.0337352 -2.2072895,0.01601326 8.7185884,-4.0017078 c -1.7454984,2.3720609 -1.7354408,5.6174519 -6e-7,8.035443 z"
         transform="matrix(-1.1,0,0,-1.1,-1.1,0)"
         inkscape:connector-curvature="0" />
    </marker>
    <marker
       inkscape:stockid="Arrow1Lstart"
       style="overflow:visible"
       refY="0"
       refX="0"
       orient="auto"
       id="Arrow1Lstart">
      <path
         id="path5718"
         style="fill-rule:evenodd;stroke:#000000;stroke-width:1.00000003pt;marker-start:none"
         transform="matrix(0.8,0,0,0.8,10,0)"
         d="M 0,0 5,-5 -12.5,0 5,5 Z"
         inkscape:connector-curvature="0" />
    </marker>
    <marker
       inkscape:stockid="Arrow1Lend"
       style="overflow:visible"
       refY="0"
       refX="0"
       orient="auto"
       id="marker5723">
      <path
         id="path5721"
         style="fill-rule:evenodd;stroke:#000000;stroke-width:1.00000003pt;marker-start:none"
         transform="matrix(-0.8,0,0,-0.8,-10,0)"
         d="M 0,0 5,-5 -12.5,0 5,5 Z"
         inkscape:connector-curvature="0" />
    </marker>
  </defs>
  <sodipodi:namedview
     id="base"
     pagecolor="#ffffff"
     bordercolor="#666666"
     borderopacity="1.0"
     inkscape:pageopacity="0.0"
     inkscape:pageshadow="2"
     inkscape:zoom="1.4142136"
     inkscape:cx="338.8611"
     inkscape:cy="134.32869"
     inkscape:document-units="mm"
     inkscape:current-layer="layer1"
     showgrid="false"
     inkscape:window-width="1920"
     inkscape:window-height="1017"
     inkscape:window-x="-8"
     inkscape:window-y="-8"
     inkscape:window-maximized="1" />
  <metadata
     id="metadata5">
    <rdf:RDF>
      <cc:Work
         rdf:about="">
        <dc:format>image/svg+xml</dc:format>
        <dc:type
           rdf:resource="http://purl.org/dc/dcmitype/StillImage" />
        <dc:title />
      </cc:Work>
    </rdf:RDF>
  </metadata>
  <g
     inkscape:label="Ebene 1"
     inkscape:groupmode="layer"
     id="layer1"
     transform="translate(-8.8292849,-116.59661)">
    <path
       style="fill:none;stroke:#000000;stroke-width:0.26458332px;stroke-linecap:butt;stroke-linejoin:miter;stroke-opacity:1"
       d="m 12.49183,162.99293 -3.6624006,-0.004"
       id="path7495"
       inkscape:connector-curvature="0" />
    <path
       inkscape:connector-curvature="0"
       id="path7511"
       d="m 10.665908,164.87495 -0.004,-3.78874"
       style="fill:none;stroke:#000000;stroke-width:0.26458332px;stroke-linecap:butt;stroke-linejoin:miter;stroke-opacity:1" />
    <path
       d="m 46.016532,162.79176 h 53.733132 l -4.7e-5,-0.0873 -1.22e-4,-0.0873 -2.41e-4,-0.0873 -2.64e-4,-0.0873 -2.65e-4,-0.0873 -5.29e-4,-0.0873 -5.29e-4,-0.0873 -5.3e-4,-0.0873 -7.93e-4,-0.0873 -7.94e-4,-0.0873 -0.0011,-0.0873 -0.0011,-0.0873 -0.0011,-0.0873 -0.0011,-0.0873 -0.0011,-0.0873 -0.0011,-0.0873 -0.0011,-0.0872 -0.0021,-0.0873 -0.0021,-0.0873 -0.0021,-0.0872 -0.0021,-0.0873 -0.0021,-0.0872 -0.0021,-0.0873 -0.0021,-0.0872 -0.0021,-0.0872 -0.0021,-0.0872 -0.0021,-0.0872 -0.0021,-0.0872 -0.0021,-0.0872 -0.0021,-0.0872 -0.003,-0.0872 -0.003,-0.0872 -0.003,-0.0872 -0.003,-0.0872 -0.003,-0.0872 -0.003,-0.0872 -0.003,-0.0872 -0.003,-0.0872 -0.003,-0.0872 -0.003,-0.0872 -0.004,-0.0872 -0.004,-0.0872 -0.004,-0.0872 -0.004,-0.0872 -0.0038,-0.0872 -0.0039,-0.0872 -0.004,-0.0872 -0.0041,-0.0872 -0.0042,-0.0872 -0.0043,-0.0872 -0.0043,-0.0872 -0.0045,-0.0871 -0.0045,-0.0872 -0.0046,-0.0872 -0.0047,-0.0871 -0.0048,-0.0871 -0.0049,-0.0871 -0.005,-0.0871 -0.005,-0.0871 -0.0051,-0.0871 -0.0052,-0.0871 -0.0053,-0.0871 -0.0054,-0.0871 -0.0055,-0.0871 -0.0055,-0.0871 -0.0057,-0.0871 -0.0057,-0.0871 -0.0058,-0.0871 -0.0059,-0.0871 -0.006,-0.0871 -0.0061,-0.0871 -0.0062,-0.0871 -0.0063,-0.087 -0.0064,-0.087 -0.0064,-0.087 -0.0065,-0.087 -0.0066,-0.087 -0.0067,-0.087 -0.0068,-0.087 -0.0068,-0.087 -0.02829,-0.34793 -0.02965,-0.34782 -0.03103,-0.34769 -0.03243,-0.34758 -0.03377,-0.34744 -0.03516,-0.34732 -0.03653,-0.34716 -0.03791,-0.34703 -0.03928,-0.34688 -0.04065,-0.34672 -0.04203,-0.34655 -0.04339,-0.34639 -0.04477,-0.34623 -0.04613,-0.34604 -0.0475,-0.34586 -0.04887,-0.34567 -0.05024,-0.34548 -0.0516,-0.34529 -0.05297,-0.34507 -0.05433,-0.34487 -0.0557,-0.34465 -0.05707,-0.34444 -0.05841,-0.34421 -0.05978,-0.34398 -0.06115,-0.34374 -0.0625,-0.3435 -0.06386,-0.34325 -0.06523,-0.34302 -0.06657,-0.34274 -0.06793,-0.34249 -0.06929,-0.34221 -0.07064,-0.34195 -0.072,-0.34167 -0.07334,-0.34138 -0.0747,-0.34109 -0.07604,-0.34081 -0.0774,-0.3405 -0.07873,-0.34019 -0.08008,-0.3399 -0.08143,-0.33957 -0.08277,-0.33925 -0.08411,-0.33893 -0.08545,-0.3386 -0.08679,-0.33826 -0.08812,-0.33792 -0.08947,-0.33758 -0.0908,-0.33722 -0.09213,-0.33687 -0.09347,-0.33651 -0.09479,-0.33614 -0.09613,-0.33577 -0.09745,-0.33538 -0.09879,-0.33501 -0.100097,-0.33462 -0.101431,-0.33423 -0.102745,-0.33383 -0.104072,-0.33342 -0.105386,-0.33302 -0.106704,-0.33261 -0.108024,-0.33218 -0.109326,-0.33177 -0.110646,-0.33133 -0.111947,-0.33091 -0.113269,-0.33046 -0.114569,-0.33001 -0.115869,-0.32957 -0.11719,-0.32911 -0.118472,-0.32866 -0.119772,-0.32819 -0.121078,-0.32772 -0.12237,-0.32724 -0.123669,-0.32677 -0.124952,-0.32628 -0.126249,-0.3258 -0.127537,-0.32529 -0.128823,-0.32481 -0.130093,-0.32429 -0.131395,-0.32379 -0.132667,-0.32326 -0.133943,-0.32276 -49.642946,20.40942 0.0669,0.16141 0.0661,0.16173 0.0653,0.16205 0.0645,0.16237 0.0637,0.16268 0.0629,0.16298 0.0621,0.1633 0.0613,0.16359 0.0604,0.16389 0.0597,0.16418 0.0589,0.16448 0.058,0.16475 0.0572,0.16504 0.0564,0.16531 0.0556,0.16559 0.0547,0.16585 0.0539,0.16612 0.0531,0.16638 0.0523,0.16664 0.0514,0.16689 0.0506,0.16713 0.0498,0.16738 0.049,0.16763 0.0482,0.16786 0.0473,0.16809 0.0465,0.16832 0.0456,0.16855 0.0448,0.16877 0.044,0.16898 0.0431,0.1692 0.0423,0.16939 0.0415,0.16961 0.0407,0.16981 0.0398,0.17 0.0389,0.1702 0.0381,0.17038 0.0373,0.17056 0.0364,0.17075 0.0356,0.17092 0.0347,0.1711 0.0339,0.17126 0.033,0.17141 0.0322,0.17159 0.0313,0.17173 0.0305,0.17189 0.0296,0.17203 0.0288,0.17218 0.0279,0.17231 0.027,0.17244 0.0262,0.17258 0.0254,0.17271 0.0245,0.17282 0.0236,0.17294 0.0228,0.17306 0.0219,0.17316 0.021,0.17327 0.0202,0.17337 0.0194,0.17346 0.0185,0.17356 0.0177,0.17365 0.0168,0.17373 0.016,0.17381 0.0151,0.17389 0.0143,0.17396 0.0133,0.17402 0.0125,0.17409 0.0116,0.17414 0.0108,0.17421 0.01,0.17425 0.009,0.1743 0.008,0.17434 0.007,0.17437 0.006,0.17442 0.006,0.17443 0.005,0.17447 0.004,0.17449 0.003,0.1745 0.002,0.17452 10e-4,0.17452 3.44e-4,0.17453 m 46.917578,-34.01569 8.273839,-3.40156 0.14733,0.35502 0.14594,0.35559 0.14452,0.35618 0.14312,0.35672 0.1417,0.35728 0.14028,0.35782 0.13888,0.35838 0.13746,0.3589 0.13602,0.35945 0.13461,0.35997 0.13318,0.36049 0.13176,0.36102 0.13033,0.36152 0.12888,0.36202 0.12747,0.36252 0.12602,0.36302 0.12459,0.36352 0.12316,0.36398 0.1217,0.36447 0.12026,0.36494 0.11883,0.3654 0.11737,0.36587 0.11593,0.36631 0.11447,0.36678 0.11303,0.36721 0.11156,0.36765 0.11012,0.36808 0.10865,0.36851 0.1072,0.36893 0.10574,0.36935 0.10428,0.36975 0.10282,0.37015 0.10134,0.37056 0.0999,0.37094 0.0984,0.37134 0.0969,0.37171 0.0955,0.37209 0.094,0.37246 0.0925,0.37282 0.091,0.37317 0.0896,0.37354 0.0881,0.37388 0.0866,0.37422 0.0851,0.37455 0.0837,0.37488 0.0822,0.37521 0.0807,0.37552 0.0792,0.37583 0.0777,0.37614 0.0762,0.37644 0.0747,0.37673 0.0732,0.37703 0.0717,0.3773 0.0702,0.37759 0.0688,0.37784 0.0673,0.37812 0.0658,0.37838 0.0643,0.37863 0.0628,0.37888 0.0613,0.37911 0.0598,0.37936 0.0583,0.37958 0.0568,0.37982 0.0553,0.38002 0.0538,0.38024 0.0523,0.38045 0.0507,0.38065 0.0493,0.38084 0.0477,0.38103 0.0462,0.38121 0.0447,0.3814 0.0432,0.38156 0.0417,0.38173 0.0402,0.38189 0.0387,0.38204 0.0372,0.38219 0.0356,0.38233 0.0341,0.38247 0.0326,0.38259 0.0311,0.38273 -8.927924,0.6974 m 0.276064,6.97401 h 9.85108 l -0.001,-0.48432 -0.004,-0.4843 -0.006,-0.48428 -0.008,-0.48425 -0.0108,-0.48421 -0.0132,-0.48414 -0.0156,-0.48407 -0.018,-0.48399 -0.0204,-0.4839 -0.0228,-0.4838 -0.0251,-0.48367 -0.0275,-0.48355 -0.0299,-0.48341 -0.0323,-0.48325 -0.0347,-0.4831 -0.0371,-0.48292 -0.0395,-0.48273 -0.0419,-0.48253 -0.0443,-0.48232 -0.0466,-0.48211 -0.049,-0.48187 -0.0514,-0.48162 -0.0538,-0.48137 -0.0562,-0.4811 -0.0585,-0.48082 -0.0609,-0.48053 -0.0633,-0.48023 -0.0657,-0.47991 -0.068,-0.47959 -0.0704,-0.47925 -0.0728,-0.4789 -0.0751,-0.47855 -0.0775,-0.47816 -0.0799,-0.47779 -0.0822,-0.47739 -0.0846,-0.47699 -0.087,-0.47656 -0.0893,-0.47614 -0.0917,-0.4757 -0.094,-0.47524 -0.0964,-0.47478 -0.0987,-0.4743 -0.10107,-0.47382 -0.1034,-0.47333 -0.10574,-0.4728 -0.10808,-0.47229 -0.11041,-0.47177 -0.11275,-0.4712 -0.11508,-0.47066 -0.1174,-0.4701 -0.11973,-0.46951 -0.12204,-0.46894 -0.12437,-0.46832 -0.12667,-0.46771 -0.129,-0.46709 -0.1313,-0.46645 -0.13361,-0.46582 -0.13589,-0.46515 -0.13822,-0.46449 -0.14049,-0.4638 -0.1428,-0.46313 -0.14507,-0.46241 -0.14737,-0.46171 -0.14965,-0.46098 -0.15192,-0.46025 -0.15421,-0.4595 -0.15647,-0.45874 -0.15874,-0.45798 -0.16099,-0.45719 -0.16327,-0.45641 -0.16552,-0.45561 -0.16776,-0.45479 -0.17001,-0.45397 -0.17227,-0.45315 -0.17449,-0.45229 -0.17673,-0.45143 -0.17897,-0.45058 -0.18118,-0.44969 -0.18341,-0.4488 -0.18563,-0.44791 -0.82739,0.34016 m 0.82739,-0.34016 0.82738,-0.34016 0.18731,0.45194 0.18507,0.45285 0.18281,0.45375 0.18057,0.45463 0.17832,0.4555 0.17607,0.45638 0.17381,0.45721 0.17155,0.45807 0.16928,0.45889 0.167,0.45971 0.16473,0.46051 0.16245,0.46133 0.16017,0.46209 0.15788,0.46287 0.1556,0.46365 0.15329,0.4644 0.15099,0.46513 0.1487,0.46586 0.14639,0.46658 0.14408,0.4673 0.14176,0.46799 0.13945,0.46867 0.13714,0.46934 0.1348,0.47 0.13248,0.47067 0.13016,0.47129 0.12781,0.47194 0.12549,0.47254 0.12315,0.47315 0.12081,0.47374 0.11845,0.47434 0.11611,0.47489 0.11376,0.47546 0.11141,0.47601 0.10906,0.47655 0.10669,0.47706 0.10435,0.47758 0.10195,0.4781 0.0996,0.47857 0.0972,0.47906 0.0949,0.47953 0.0925,0.47998 0.0901,0.48043 0.0877,0.48085 0.0854,0.48128 0.083,0.4817 0.0806,0.48209 0.0782,0.48248 0.0758,0.48285 0.0734,0.48321 0.071,0.48357 0.0687,0.48391 0.0663,0.48424 0.0639,0.48455 0.0615,0.48486 0.0591,0.48515 0.0567,0.48544 0.0543,0.48571 0.0519,0.48596 0.0495,0.48621 0.0471,0.48644 0.0447,0.48667 0.0422,0.48688 0.0398,0.48709 0.0374,0.48726 0.035,0.48745 0.0326,0.48761 0.0302,0.48776 0.0278,0.48791 0.0254,0.48803 0.023,0.48815 0.0205,0.48826 0.0181,0.48835 0.0157,0.48844 0.0133,0.4885 0.0109,0.48856 0.008,0.48861 0.006,0.48865 0.004,0.48867 0.001,0.48868 h -0.89553 m 2.58862,-4.4401 5.47135,-0.004 7.16483,-8.88875 28.65768,-8.88873 12.53781,22.22182 h 23.28516 l -0.001,-0.58176 -0.003,-0.58177 -0.005,-0.58174 -0.007,-0.58173 -0.009,-0.5817 -0.0106,-0.58167 -0.0125,-0.58163 -0.0144,-0.58163 -0.0163,-0.58154 -0.0182,-0.58148 -0.0201,-0.58143 -0.0221,-0.58135 -0.0239,-0.58128 -0.0259,-0.5812 -0.0278,-0.58111 -0.0297,-0.58101 -0.0317,-0.58092 -0.0335,-0.58081 -0.0354,-0.5807 -0.0374,-0.58058 -0.0393,-0.58046 -0.0412,-0.58033 -0.0431,-0.58019 -0.045,-0.58004 -0.047,-0.5799 -0.0489,-0.57974 -0.0508,-0.57958 -0.0527,-0.57941 -0.0546,-0.57924 -0.0565,-0.57905 -0.0584,-0.57888 -0.0603,-0.57867 -0.0622,-0.57848 -0.0641,-0.57827 -0.066,-0.57807 -0.0679,-0.57784 -0.0698,-0.57762 -0.0718,-0.57739 -0.0737,-0.57715 -0.0755,-0.57692 -0.0775,-0.57666 -0.0794,-0.57641 -0.0813,-0.57614 -0.0832,-0.57589 -0.085,-0.5756 -0.087,-0.57534 -0.0889,-0.57504 -0.0907,-0.57474 -0.0926,-0.57446 -0.0945,-0.57415 -0.0964,-0.57384 -0.0983,-0.57353 -0.1002,-0.57319 -0.1021,-0.57288 -0.10399,-0.57253 -0.10588,-0.5722 -0.10775,-0.57185 -0.10964,-0.57151 -0.11153,-0.57112 -0.11343,-0.57077 -0.11527,-0.5704 -0.11716,-0.57003 -0.11905,-0.56965 -0.12093,-0.56924 -0.12279,-0.56885 -0.12469,-0.56845 -0.12654,-0.56805 -0.12845,-0.56762 -0.13027,-0.56721 -0.13217,-0.56679 -0.13402,-0.56635 -0.13591,-0.56592 -0.13778,-0.56547 -0.13962,-0.56501 -0.1415,-0.56456 -0.14334,-0.5641 -0.14523,-0.56363 -0.14706,-0.56316 -0.1489,-0.56267 -0.1508,-0.56219 -74.39327,19.78492 0.0716,0.26677 0.0709,0.26697 0.0701,0.26717 0.0694,0.26735 0.0687,0.26753 0.0679,0.26772 0.0672,0.26791 0.0665,0.26808 0.0658,0.26826 0.065,0.26845 0.0643,0.26861 0.0635,0.26878 0.0628,0.26897 0.0621,0.26913 0.0613,0.26929 0.0606,0.26945 0.0598,0.26963 0.0591,0.26978 0.0584,0.26994 0.0576,0.2701 0.0569,0.27025 0.0561,0.27041 0.0554,0.27055 0.0547,0.27072 0.0539,0.27084 0.0532,0.271 0.0524,0.27114 0.0517,0.27128 0.0509,0.27142 0.0502,0.27156 0.0495,0.27169 0.0487,0.27182 0.048,0.27196 0.0472,0.27208 0.0465,0.27221 0.0457,0.27234 0.045,0.27245 0.0442,0.27258 0.0435,0.27269 0.0427,0.27282 0.042,0.27292 0.0412,0.27304 0.0405,0.27316 0.0397,0.27325 0.039,0.27336 0.0382,0.27348 0.0375,0.27357 0.0367,0.27367 0.036,0.27377 0.0352,0.27386 0.0345,0.27397 0.0337,0.27405 0.0329,0.27414 0.0322,0.27423 0.0314,0.27432 0.0307,0.2744 0.0299,0.27448 0.0292,0.27457 0.0284,0.27464 0.0277,0.27471 0.0269,0.27479 0.0262,0.27487 0.0254,0.27493 0.0247,0.275 0.0239,0.27507 0.0232,0.27512 0.0224,0.2752 0.0216,0.27525 0.0209,0.2753 0.0201,0.27537 0.0194,0.27541 0.0186,0.27547 0.0178,0.27552 0.0171,0.27556 0.0164,0.27562 0.0156,0.27565 0.0148,0.27569 0.0141,0.27574 0.0133,0.27577 0.0126,0.2758 m 5.47136,4.4401 v -4.44437 m 48.35994,4.44437 h -48.3596 m -5.37331,0 -1e-5,-0.0555 -4e-5,-0.0555 -9e-5,-0.0555 -1e-4,-0.0555 -1.3e-4,-0.0555 -1.1e-4,-0.0555 -2.5e-4,-0.0555 -2.4e-4,-0.0555 -2.3e-4,-0.0555 -2.6e-4,-0.0555 -2.5e-4,-0.0555 -2.7e-4,-0.0555 -2.6e-4,-0.0555 -2.6e-4,-0.0555 -5.3e-4,-0.0555 -5.3e-4,-0.0555 -5.3e-4,-0.0555 -5.3e-4,-0.0555 -5.3e-4,-0.0555 -5.3e-4,-0.0555 -5.3e-4,-0.0555 -5.3e-4,-0.0555 -7.9e-4,-0.0555 -7.9e-4,-0.0555 -8e-4,-0.0555 -7.9e-4,-0.0555 -8e-4,-0.0555 -7.9e-4,-0.0555 -7.9e-4,-0.0555 -0.001,-0.0555 -0.001,-0.0555 -10e-4,-0.0555 -0.001,-0.0555 -0.001,-0.0555 -10e-4,-0.0555 -0.001,-0.0555 -0.001,-0.0555 -10e-4,-0.0555 -0.001,-0.0555 -0.001,-0.0555 -10e-4,-0.0555 -0.001,-0.0555 -0.001,-0.0555 -10e-4,-0.0555 -0.001,-0.0555 -0.001,-0.0555 -10e-4,-0.0555 -0.001,-0.0555 -0.002,-0.0555 -0.001,-0.0555 -0.002,-0.0555 -0.001,-0.0555 -0.002,-0.0555 -0.002,-0.0555 -0.002,-0.0555 -0.002,-0.0555 -0.002,-0.0555 -0.002,-0.0555 -0.002,-0.0555 -0.002,-0.0555 -0.002,-0.0555 -0.002,-0.0555 -0.002,-0.0555 -0.002,-0.0555 -0.002,-0.0555 -0.002,-0.0555 -0.002,-0.0555 -0.002,-0.0555 -0.002,-0.0555 -0.002,-0.0555 -0.002,-0.0555 -0.002,-0.0555 -0.002,-0.0555 -0.002,-0.0555 -0.002,-0.0555 -0.002,-0.0555 -0.002,-0.0555 -0.002,-0.0555 -0.002,-0.0555 -0.002,-0.0555 m 5.47136,4.4401 h -5.37331 m -3.47873,-26.22653 -0.86503,0.23005 0.0852,0.31764 0.0841,0.3179 0.0831,0.31819 0.0821,0.31845 0.081,0.31872 0.0799,0.31898 0.0789,0.31923 0.0778,0.31949 0.0768,0.31975 0.0757,0.31999 0.0747,0.32022 0.0736,0.32048 0.0726,0.32071 0.0715,0.32094 0.0704,0.32118 0.0694,0.3214 0.0683,0.32163 0.0673,0.32185 0.0662,0.32205 0.0651,0.32228 0.0641,0.32249 0.063,0.32269 0.062,0.3229 0.0609,0.32309 0.0598,0.32329 0.0587,0.32349 0.0577,0.32367 0.0566,0.32386 0.0556,0.32404 0.0545,0.32422 0.0534,0.32439 0.0523,0.32457 0.0513,0.32473 0.0502,0.3249 0.0491,0.32506 0.0481,0.32522 0.047,0.32538 0.0459,0.32552 0.0448,0.32567 0.0438,0.32581 0.0427,0.32596 0.0416,0.32609 0.0405,0.32623 0.0395,0.32635 0.0384,0.32648 0.0373,0.32661 0.0362,0.32673 0.0352,0.32683 0.0341,0.32696 0.033,0.32706 0.0319,0.32716 0.0309,0.32727 0.0298,0.32737 0.0287,0.32746 0.0276,0.32756 0.0265,0.32764 0.0254,0.32772 0.0244,0.32781 0.0233,0.32789 0.0222,0.32795 0.0211,0.32803 0.02,0.3281 0.019,0.32816 0.0179,0.32821 0.0168,0.32828 0.0157,0.32834 0.0146,0.32837 0.0135,0.32843 0.0124,0.32846 0.0114,0.32851 0.0103,0.32854 0.009,0.32857 0.008,0.3286 0.007,0.32861 0.006,0.32865 0.005,0.32866 0.004,0.32868 0.003,0.32868 0.002,0.3287 5.3e-4,0.3287 h 0.89556"
       style="fill:none;stroke:#0000ff;stroke-width:0.30000001;stroke-linecap:butt;stroke-linejoin:miter;stroke-miterlimit:10;stroke-dasharray:none;stroke-opacity:1"
       id="path72"
       inkscape:connector-curvature="0" />
    <path
       style="fill:#666666;stroke-width:0.30000001;stroke-linecap:square;stroke-linejoin:miter;stroke-miterlimit:10;stroke-dasharray:none;stroke-dashoffset:0"
       d="m 46.185999,161.06512 c -0.200435,-3.4281 -0.879295,-6.86169 -1.9803,-10.01612 -0.329192,-0.94314 -0.578093,-1.73524 -0.553114,-1.76022 0.0541,-0.0541 48.90671,-20.14721 49.067524,-20.18151 0.149113,-0.0318 1.24575,2.75437 2.203656,5.59873 2.768319,8.22012 4.245284,16.42727 4.576955,25.43307 l 0.09135,2.48047 H 72.93448 46.276886 Z"
       id="path51"
       inkscape:connector-curvature="0" />
  </g>
</svg>
